G04 #@! TF.GenerationSoftware,KiCad,Pcbnew,(6.0.0)*
G04 #@! TF.CreationDate,2022-04-06T20:06:18+02:00*
G04 #@! TF.ProjectId,GenerativeEngine,47656e65-7261-4746-9976-65456e67696e,rev?*
G04 #@! TF.SameCoordinates,Original*
G04 #@! TF.FileFunction,Soldermask,Bot*
G04 #@! TF.FilePolarity,Negative*
%FSLAX46Y46*%
G04 Gerber Fmt 4.6, Leading zero omitted, Abs format (unit mm)*
G04 Created by KiCad (PCBNEW (6.0.0)) date 2022-04-06 20:06:18*
%MOMM*%
%LPD*%
G01*
G04 APERTURE LIST*
%ADD10C,1.575000*%
%ADD11C,1.800000*%
%ADD12C,1.950000*%
%ADD13R,1.800000X1.800000*%
%ADD14C,1.650000*%
%ADD15C,4.800000*%
%ADD16O,1.600000X2.000000*%
%ADD17R,1.700000X1.700000*%
%ADD18O,1.700000X1.700000*%
G04 APERTURE END LIST*
D10*
X109560400Y-108027400D03*
X109560400Y-114527400D03*
X114060400Y-108027400D03*
X114060400Y-114527400D03*
X66060900Y-96527400D03*
X66060900Y-103027400D03*
X70560900Y-96527400D03*
X70560900Y-103027400D03*
D11*
X144964200Y-141734400D03*
X141864200Y-141734400D03*
X133564200Y-141734400D03*
D10*
X59560900Y-108027400D03*
X59560900Y-114527400D03*
X64060900Y-108027400D03*
X64060900Y-114527400D03*
X56984200Y-49834400D03*
X56984200Y-56334400D03*
X61484200Y-49834400D03*
X61484200Y-56334400D03*
X66484200Y-60334400D03*
X66484200Y-66834400D03*
X70984200Y-60334400D03*
X70984200Y-66834400D03*
X72060900Y-108027400D03*
X72060900Y-114527400D03*
X76560900Y-108027400D03*
X76560900Y-114527400D03*
X47484200Y-60334400D03*
X47484200Y-66834400D03*
X51984200Y-60334400D03*
X51984200Y-66834400D03*
X84560900Y-108027400D03*
X84560900Y-114527400D03*
X89060900Y-108027400D03*
X89060900Y-114527400D03*
D11*
X49964200Y-151110800D03*
X46864200Y-151110800D03*
X38564200Y-151110800D03*
D12*
X39780300Y-82983800D03*
X39780300Y-89583800D03*
D10*
X91060900Y-96527400D03*
X91060900Y-103027400D03*
X95560900Y-96527400D03*
X95560900Y-103027400D03*
X134560400Y-108027400D03*
X134560400Y-114527400D03*
X139060400Y-108027400D03*
X139060400Y-114527400D03*
D11*
X81964200Y-132334400D03*
X78864200Y-132334400D03*
X70564200Y-132334400D03*
X49959200Y-132334400D03*
X46859200Y-132334400D03*
X38559200Y-132334400D03*
D13*
X42839200Y-50882400D03*
D11*
X45379200Y-50882400D03*
D10*
X122060400Y-108027400D03*
X122060400Y-114527400D03*
X126560400Y-108027400D03*
X126560400Y-114527400D03*
X116060900Y-96527400D03*
X116060900Y-103027400D03*
X120560900Y-96527400D03*
X120560900Y-103027400D03*
D11*
X113464200Y-132334400D03*
X110364200Y-132334400D03*
X102064200Y-132334400D03*
D10*
X53560900Y-96527400D03*
X53560900Y-103027400D03*
X58060900Y-96527400D03*
X58060900Y-103027400D03*
D11*
X113464200Y-141734400D03*
X110364200Y-141734400D03*
X102064200Y-141734400D03*
D10*
X56984200Y-70834400D03*
X56984200Y-77334400D03*
X61484200Y-70834400D03*
X61484200Y-77334400D03*
D11*
X113464200Y-151110800D03*
X110364200Y-151110800D03*
X102064200Y-151110800D03*
X144964200Y-151134400D03*
X141864200Y-151134400D03*
X133564200Y-151134400D03*
D14*
X126227000Y-71267500D03*
X131227000Y-71267500D03*
X128727000Y-71267500D03*
D15*
X134427000Y-63767500D03*
X123027000Y-63767500D03*
D16*
X89018600Y-53912200D03*
X91558600Y-53912200D03*
X94098600Y-53912200D03*
X96638600Y-53912200D03*
D11*
X144964200Y-132334400D03*
X141864200Y-132334400D03*
X133564200Y-132334400D03*
D10*
X97060900Y-108027400D03*
X97060900Y-114527400D03*
X101560900Y-108027400D03*
X101560900Y-114527400D03*
D11*
X81964200Y-151110800D03*
X78864200Y-151110800D03*
X70564200Y-151110800D03*
D10*
X126485328Y-80758410D03*
X126485328Y-87258410D03*
X130985328Y-80758410D03*
X130985328Y-87258410D03*
X47060900Y-108027400D03*
X47060900Y-114527400D03*
X51560900Y-108027400D03*
X51560900Y-114527400D03*
D11*
X81964200Y-141734400D03*
X78864200Y-141734400D03*
X70564200Y-141734400D03*
D10*
X56984200Y-60334400D03*
X56984200Y-66834400D03*
X61484200Y-60334400D03*
X61484200Y-66834400D03*
X103560900Y-96527400D03*
X103560900Y-103027400D03*
X108060900Y-96527400D03*
X108060900Y-103027400D03*
D11*
X49964200Y-141734400D03*
X46864200Y-141734400D03*
X38564200Y-141734400D03*
D17*
X61417200Y-96337200D03*
D18*
X61417200Y-98877200D03*
D17*
X74549000Y-70637400D03*
D18*
X77089000Y-70637400D03*
X79629000Y-70637400D03*
D17*
X143718200Y-66248200D03*
D18*
X141178200Y-66248200D03*
X143718200Y-68788200D03*
X141178200Y-68788200D03*
X143718200Y-71328200D03*
X141178200Y-71328200D03*
X143718200Y-73868200D03*
X141178200Y-73868200D03*
X143718200Y-76408200D03*
X141178200Y-76408200D03*
D17*
X75763200Y-75615800D03*
D18*
X78303200Y-75615800D03*
M02*
