%FSLAX45Y45*%
G04 Gerber Fmt 4.5, Leading zero omitted, Abs format (unit mm)*
G04 Created by KiCad (PCBNEW (6.0.0)) date 2022-04-06 20:06:22*
%MOMM*%
%LPD*%
G01*
G04 APERTURE LIST*
%TA.AperFunction,Profile*%
%ADD10C,0.100000*%
%TD*%
%ADD11C,0.200000*%
%ADD12C,0.030000*%
%ADD13C,0.090000*%
%ADD14C,0.100000*%
%ADD15C,0.105000*%
%ADD16C,0.110000*%
%ADD17C,0.130000*%
%ADD18C,0.160000*%
%ADD19C,0.316230*%
G04 APERTURE END LIST*
D10*
X14698420Y-15583440D02*
X14698420Y-4783440D01*
X14698420Y-15583440D02*
X3698420Y-15583440D01*
X14698420Y-4783440D02*
X3698420Y-4783440D01*
X3698420Y-15583440D02*
X3698420Y-4783440D01*
D11*
D12*
X4021060Y-9278860D02*
X4051060Y-9308860D01*
X4051060Y-9278860D02*
X4021060Y-9308860D01*
X4061700Y-7003020D02*
X4091700Y-7033020D01*
X4091700Y-7003020D02*
X4061700Y-7033020D01*
X4071860Y-7444980D02*
X4101860Y-7474980D01*
X4101860Y-7444980D02*
X4071860Y-7474980D01*
X4127740Y-10406620D02*
X4157740Y-10436620D01*
X4157740Y-10406620D02*
X4127740Y-10436620D01*
X4203940Y-8278100D02*
X4233940Y-8308100D01*
X4233940Y-8278100D02*
X4203940Y-8308100D01*
X4214100Y-8943580D02*
X4244100Y-8973580D01*
X4244100Y-8943580D02*
X4214100Y-8973580D01*
X4229340Y-8760700D02*
X4259340Y-8790700D01*
X4259340Y-8760700D02*
X4229340Y-8790700D01*
X4249660Y-10487900D02*
X4279660Y-10517900D01*
X4279660Y-10487900D02*
X4249660Y-10517900D01*
X4315700Y-8333980D02*
X4345700Y-8363980D01*
X4345700Y-8333980D02*
X4315700Y-8363980D01*
X4386820Y-8725140D02*
X4416820Y-8755140D01*
X4416820Y-8725140D02*
X4386820Y-8755140D01*
X4402060Y-8415260D02*
X4432060Y-8445260D01*
X4432060Y-8415260D02*
X4402060Y-8445260D01*
X4442700Y-6032740D02*
X4472700Y-6062740D01*
X4472700Y-6032740D02*
X4442700Y-6062740D01*
X4513820Y-8720060D02*
X4543820Y-8750060D01*
X4543820Y-8720060D02*
X4513820Y-8750060D01*
X4523980Y-8425420D02*
X4553980Y-8455420D01*
X4553980Y-8425420D02*
X4523980Y-8455420D01*
X4574780Y-7582140D02*
X4604780Y-7612140D01*
X4604780Y-7582140D02*
X4574780Y-7612140D01*
X4579860Y-7109700D02*
X4609860Y-7139700D01*
X4609860Y-7109700D02*
X4579860Y-7139700D01*
X4590020Y-11869660D02*
X4620020Y-11899660D01*
X4620020Y-11869660D02*
X4590020Y-11899660D01*
X4625580Y-12545300D02*
X4655580Y-12575300D01*
X4655580Y-12545300D02*
X4625580Y-12575300D01*
X4640820Y-8720060D02*
X4670820Y-8750060D01*
X4670820Y-8720060D02*
X4640820Y-8750060D01*
X4666220Y-8425420D02*
X4696220Y-8455420D01*
X4696220Y-8425420D02*
X4666220Y-8455420D01*
X4696700Y-10391380D02*
X4726700Y-10421380D01*
X4726700Y-10391380D02*
X4696700Y-10421380D01*
X4762740Y-8720060D02*
X4792740Y-8750060D01*
X4792740Y-8720060D02*
X4762740Y-8750060D01*
X4798300Y-8430500D02*
X4828300Y-8460500D01*
X4828300Y-8430500D02*
X4798300Y-8460500D01*
X4874500Y-8720060D02*
X4904500Y-8750060D01*
X4904500Y-8720060D02*
X4874500Y-8750060D01*
X4884660Y-9603980D02*
X4914660Y-9633980D01*
X4914660Y-9603980D02*
X4884660Y-9633980D01*
X4930380Y-8430500D02*
X4960380Y-8460500D01*
X4960380Y-8430500D02*
X4930380Y-8460500D01*
X4981180Y-8720060D02*
X5011180Y-8750060D01*
X5011180Y-8720060D02*
X4981180Y-8750060D01*
X4981180Y-11829020D02*
X5011180Y-11859020D01*
X5011180Y-11829020D02*
X4981180Y-11859020D01*
X5057380Y-8430500D02*
X5087380Y-8460500D01*
X5087380Y-8430500D02*
X5057380Y-8460500D01*
X5092940Y-8720060D02*
X5122940Y-8750060D01*
X5122940Y-8720060D02*
X5092940Y-8750060D01*
X5103100Y-10208500D02*
X5133100Y-10238500D01*
X5133100Y-10208500D02*
X5103100Y-10238500D01*
X5184380Y-8430500D02*
X5214380Y-8460500D01*
X5214380Y-8430500D02*
X5184380Y-8460500D01*
X5219940Y-7902180D02*
X5249940Y-7932180D01*
X5249940Y-7902180D02*
X5219940Y-7932180D01*
X5219940Y-8720060D02*
X5249940Y-8750060D01*
X5249940Y-8720060D02*
X5219940Y-8750060D01*
X5311380Y-8435580D02*
X5341380Y-8465580D01*
X5341380Y-8435580D02*
X5311380Y-8465580D01*
X5341860Y-8720060D02*
X5371860Y-8750060D01*
X5371860Y-8720060D02*
X5341860Y-8750060D01*
X5433300Y-8435580D02*
X5463300Y-8465580D01*
X5463300Y-8435580D02*
X5433300Y-8465580D01*
X5458700Y-8720060D02*
X5488700Y-8750060D01*
X5488700Y-8720060D02*
X5458700Y-8750060D01*
X5494260Y-7983460D02*
X5524260Y-8013460D01*
X5524260Y-7983460D02*
X5494260Y-8013460D01*
X5545060Y-8440660D02*
X5575060Y-8470660D01*
X5575060Y-8440660D02*
X5545060Y-8470660D01*
X5560300Y-8720060D02*
X5590300Y-8750060D01*
X5590300Y-8720060D02*
X5560300Y-8750060D01*
X5560300Y-10553940D02*
X5590300Y-10583940D01*
X5590300Y-10553940D02*
X5560300Y-10583940D01*
X5656820Y-8435580D02*
X5686820Y-8465580D01*
X5686820Y-8435580D02*
X5656820Y-8465580D01*
X5666980Y-8714980D02*
X5696980Y-8744980D01*
X5696980Y-8714980D02*
X5666980Y-8744980D01*
X5712700Y-9106140D02*
X5742700Y-9136140D01*
X5742700Y-9106140D02*
X5712700Y-9136140D01*
X5758420Y-11920460D02*
X5788420Y-11950460D01*
X5788420Y-11920460D02*
X5758420Y-11950460D01*
X5763500Y-8709900D02*
X5793500Y-8739900D01*
X5793500Y-8709900D02*
X5763500Y-8739900D01*
X5768580Y-8440660D02*
X5798580Y-8470660D01*
X5798580Y-8440660D02*
X5768580Y-8470660D01*
X5768580Y-12225260D02*
X5798580Y-12255260D01*
X5798580Y-12225260D02*
X5768580Y-12255260D01*
X5773660Y-12357340D02*
X5803660Y-12387340D01*
X5803660Y-12357340D02*
X5773660Y-12387340D01*
X5773660Y-12484340D02*
X5803660Y-12514340D01*
X5803660Y-12484340D02*
X5773660Y-12514340D01*
X5778740Y-10782540D02*
X5808740Y-10812540D01*
X5808740Y-10782540D02*
X5778740Y-10812540D01*
X5783820Y-7556740D02*
X5813820Y-7586740D01*
X5813820Y-7556740D02*
X5783820Y-7586740D01*
X5788900Y-13444460D02*
X5818900Y-13474460D01*
X5818900Y-13444460D02*
X5788900Y-13474460D01*
X5819380Y-9060420D02*
X5849380Y-9090420D01*
X5849380Y-9060420D02*
X5819380Y-9090420D01*
X5875260Y-9121380D02*
X5905260Y-9151380D01*
X5905260Y-9121380D02*
X5875260Y-9151380D01*
X5885420Y-8801340D02*
X5915420Y-8831340D01*
X5915420Y-8801340D02*
X5885420Y-8831340D01*
X5905740Y-8963900D02*
X5935740Y-8993900D01*
X5935740Y-8963900D02*
X5905740Y-8993900D01*
X5946380Y-6830300D02*
X5976380Y-6860300D01*
X5976380Y-6830300D02*
X5946380Y-6860300D01*
X5951460Y-7251940D02*
X5981460Y-7281940D01*
X5981460Y-7251940D02*
X5951460Y-7281940D01*
X5976860Y-8349220D02*
X6006860Y-8379220D01*
X6006860Y-8349220D02*
X5976860Y-8379220D01*
X6017500Y-8191740D02*
X6047500Y-8221740D01*
X6047500Y-8191740D02*
X6017500Y-8221740D01*
X6073380Y-7384020D02*
X6103380Y-7414020D01*
X6103380Y-7384020D02*
X6073380Y-7414020D01*
X6149580Y-8039340D02*
X6179580Y-8069340D01*
X6179580Y-8039340D02*
X6149580Y-8069340D01*
X6196128Y-8767075D02*
X6226128Y-8797075D01*
X6226128Y-8767075D02*
X6196128Y-8797075D01*
X6266420Y-7389100D02*
X6296420Y-7419100D01*
X6296420Y-7389100D02*
X6266420Y-7419100D01*
X6327380Y-12890740D02*
X6357380Y-12920740D01*
X6357380Y-12890740D02*
X6327380Y-12920740D01*
X6378180Y-7566900D02*
X6408180Y-7596900D01*
X6408180Y-7566900D02*
X6378180Y-7596900D01*
X6388340Y-9344900D02*
X6418340Y-9374900D01*
X6418340Y-9344900D02*
X6388340Y-9374900D01*
X6398500Y-7922500D02*
X6428500Y-7952500D01*
X6428500Y-7922500D02*
X6398500Y-7952500D01*
X6403580Y-9167100D02*
X6433580Y-9197100D01*
X6433580Y-9167100D02*
X6403580Y-9197100D01*
X6408660Y-10452340D02*
X6438660Y-10482340D01*
X6438660Y-10452340D02*
X6408660Y-10482340D01*
X6413740Y-8750540D02*
X6443740Y-8780540D01*
X6443740Y-8750540D02*
X6413740Y-8780540D01*
X6464540Y-7627860D02*
X6494540Y-7657860D01*
X6494540Y-7627860D02*
X6464540Y-7657860D01*
X6500100Y-11905220D02*
X6530100Y-11935220D01*
X6530100Y-11905220D02*
X6500100Y-11935220D01*
X6500100Y-12093180D02*
X6530100Y-12123180D01*
X6530100Y-12093180D02*
X6500100Y-12123180D01*
X6545820Y-8516860D02*
X6575820Y-8546860D01*
X6575820Y-8516860D02*
X6545820Y-8546860D01*
X6545820Y-8633700D02*
X6575820Y-8663700D01*
X6575820Y-8633700D02*
X6545820Y-8663700D01*
X6545820Y-8735300D02*
X6575820Y-8765300D01*
X6575820Y-8735300D02*
X6545820Y-8765300D01*
X6596620Y-7226540D02*
X6626620Y-7256540D01*
X6626620Y-7226540D02*
X6596620Y-7256540D01*
X6622020Y-8400599D02*
X6652020Y-8430599D01*
X6652020Y-8400599D02*
X6622020Y-8430599D01*
X6652500Y-8521940D02*
X6682500Y-8551940D01*
X6682500Y-8521940D02*
X6652500Y-8551940D01*
X6652500Y-8638780D02*
X6682500Y-8668780D01*
X6682500Y-8638780D02*
X6652500Y-8668780D01*
X6657580Y-8735300D02*
X6687580Y-8765300D01*
X6687580Y-8735300D02*
X6657580Y-8765300D01*
X6667740Y-7643100D02*
X6697740Y-7673100D01*
X6697740Y-7643100D02*
X6667740Y-7673100D01*
X6688060Y-5468860D02*
X6718060Y-5498860D01*
X6718060Y-5468860D02*
X6688060Y-5498860D01*
X6703300Y-7912340D02*
X6733300Y-7942340D01*
X6733300Y-7912340D02*
X6703300Y-7942340D01*
X6713460Y-8090140D02*
X6743460Y-8120140D01*
X6743460Y-8090140D02*
X6713460Y-8120140D01*
X6759180Y-9156940D02*
X6789180Y-9186940D01*
X6789180Y-9156940D02*
X6759180Y-9186940D01*
X6764260Y-7582140D02*
X6794260Y-7612140D01*
X6794260Y-7582140D02*
X6764260Y-7612140D01*
X6764260Y-8521940D02*
X6794260Y-8551940D01*
X6794260Y-8521940D02*
X6764260Y-8551940D01*
X6764260Y-8735300D02*
X6794260Y-8765300D01*
X6794260Y-8735300D02*
X6764260Y-8765300D01*
X6764260Y-8857220D02*
X6794260Y-8887220D01*
X6794260Y-8857220D02*
X6764260Y-8887220D01*
X6769340Y-8638780D02*
X6799340Y-8668780D01*
X6799340Y-8638780D02*
X6769340Y-8668780D01*
X6784580Y-9344900D02*
X6814580Y-9374900D01*
X6814580Y-9344900D02*
X6784580Y-9374900D01*
X6789660Y-8374620D02*
X6819660Y-8404620D01*
X6819660Y-8374620D02*
X6789660Y-8404620D01*
X6825220Y-7820900D02*
X6855220Y-7850900D01*
X6855220Y-7820900D02*
X6825220Y-7850900D01*
X6870940Y-7988540D02*
X6900940Y-8018540D01*
X6900940Y-7988540D02*
X6870940Y-8018540D01*
X6881100Y-8100300D02*
X6911100Y-8130300D01*
X6911100Y-8100300D02*
X6881100Y-8130300D01*
X6886180Y-8847060D02*
X6916180Y-8877060D01*
X6916180Y-8847060D02*
X6886180Y-8877060D01*
X6896340Y-8648940D02*
X6926340Y-8678940D01*
X6926340Y-8648940D02*
X6896340Y-8678940D01*
X6901420Y-8562580D02*
X6931420Y-8592580D01*
X6931420Y-8562580D02*
X6901420Y-8592580D01*
X6906451Y-9192451D02*
X6936451Y-9222451D01*
X6936451Y-9192451D02*
X6906451Y-9222451D01*
X6911580Y-8476220D02*
X6941580Y-8506220D01*
X6941580Y-8476220D02*
X6911580Y-8506220D01*
X6921740Y-8730220D02*
X6951740Y-8760220D01*
X6951740Y-8730220D02*
X6921740Y-8760220D01*
X6926820Y-9095980D02*
X6956820Y-9125980D01*
X6956820Y-9095980D02*
X6926820Y-9125980D01*
X6977620Y-7216380D02*
X7007620Y-7246380D01*
X7007620Y-7216380D02*
X6977620Y-7246380D01*
X6992860Y-11239740D02*
X7022860Y-11269740D01*
X7022860Y-11239740D02*
X6992860Y-11269740D01*
X7003020Y-7886940D02*
X7033020Y-7916940D01*
X7033020Y-7886940D02*
X7003020Y-7916940D01*
X7057581Y-8264179D02*
X7087581Y-8294179D01*
X7087581Y-8264179D02*
X7057581Y-8294179D01*
X7063980Y-11686780D02*
X7093980Y-11716780D01*
X7093980Y-11686780D02*
X7063980Y-11716780D01*
X7084300Y-7704060D02*
X7114300Y-7734060D01*
X7114300Y-7704060D02*
X7084300Y-7734060D01*
X7135100Y-11637780D02*
X7165100Y-11667780D01*
X7165100Y-11637780D02*
X7135100Y-11667780D01*
X7150340Y-7932660D02*
X7180340Y-7962660D01*
X7180340Y-7932660D02*
X7150340Y-7962660D01*
X7190980Y-10609820D02*
X7220980Y-10639820D01*
X7220980Y-10609820D02*
X7190980Y-10639820D01*
X7206220Y-8760700D02*
X7236220Y-8790700D01*
X7236220Y-8760700D02*
X7206220Y-8790700D01*
X7209672Y-11598792D02*
X7239672Y-11628792D01*
X7239672Y-11598792D02*
X7209672Y-11628792D01*
X7211300Y-8069930D02*
X7241300Y-8099930D01*
X7241300Y-8069930D02*
X7211300Y-8099930D01*
X7211300Y-8923260D02*
X7241300Y-8953260D01*
X7241300Y-8923260D02*
X7211300Y-8953260D01*
X7272260Y-10609820D02*
X7302260Y-10639820D01*
X7302260Y-10609820D02*
X7272260Y-10639820D01*
X7339067Y-11726223D02*
X7369067Y-11756223D01*
X7369067Y-11726223D02*
X7339067Y-11756223D01*
X7384020Y-10259300D02*
X7414020Y-10289300D01*
X7414020Y-10259300D02*
X7384020Y-10289300D01*
X7389100Y-8039340D02*
X7419100Y-8069340D01*
X7419100Y-8039340D02*
X7389100Y-8069340D01*
X7399260Y-8151100D02*
X7429260Y-8181100D01*
X7429260Y-8151100D02*
X7399260Y-8181100D01*
X7414500Y-10340580D02*
X7444500Y-10370580D01*
X7444500Y-10340580D02*
X7414500Y-10370580D01*
X7414500Y-11671540D02*
X7444500Y-11701540D01*
X7444500Y-11671540D02*
X7414500Y-11701540D01*
X7465300Y-7236700D02*
X7495300Y-7266700D01*
X7495300Y-7236700D02*
X7465300Y-7266700D01*
X7485620Y-10056100D02*
X7515620Y-10086100D01*
X7515620Y-10056100D02*
X7485620Y-10086100D01*
X7521180Y-12560540D02*
X7551180Y-12590540D01*
X7551180Y-12560540D02*
X7521180Y-12590540D01*
X7546580Y-9299180D02*
X7576580Y-9329180D01*
X7576580Y-9299180D02*
X7546580Y-9329180D01*
X7698980Y-8151100D02*
X7728980Y-8181100D01*
X7728980Y-8151100D02*
X7698980Y-8181100D01*
X7998700Y-8643860D02*
X8028700Y-8673860D01*
X8028700Y-8643860D02*
X7998700Y-8673860D01*
X8024100Y-12016980D02*
X8054100Y-12046980D01*
X8054100Y-12016980D02*
X8024100Y-12046980D01*
X8176500Y-7815820D02*
X8206500Y-7845820D01*
X8206500Y-7815820D02*
X8176500Y-7845820D01*
X8323820Y-12723100D02*
X8353820Y-12753100D01*
X8353820Y-12723100D02*
X8323820Y-12753100D01*
X8628620Y-12718020D02*
X8658620Y-12748020D01*
X8658620Y-12718020D02*
X8628620Y-12748020D01*
X8725140Y-9040100D02*
X8755140Y-9070100D01*
X8755140Y-9040100D02*
X8725140Y-9070100D01*
X8751577Y-7883660D02*
X8781577Y-7913660D01*
X8781577Y-7883660D02*
X8751577Y-7913660D01*
X8847060Y-12184620D02*
X8877060Y-12214620D01*
X8877060Y-12184620D02*
X8847060Y-12214620D01*
X8852140Y-12448780D02*
X8882140Y-12478780D01*
X8882140Y-12448780D02*
X8852140Y-12478780D01*
X8857220Y-12570700D02*
X8887220Y-12600700D01*
X8887220Y-12570700D02*
X8857220Y-12600700D01*
X8862300Y-13276820D02*
X8892300Y-13306820D01*
X8892300Y-13276820D02*
X8862300Y-13306820D01*
X9101060Y-10487900D02*
X9131060Y-10517900D01*
X9131060Y-10487900D02*
X9101060Y-10517900D01*
X9121380Y-11864580D02*
X9151380Y-11894580D01*
X9151380Y-11864580D02*
X9121380Y-11894580D01*
X9131540Y-9111220D02*
X9161540Y-9141220D01*
X9161540Y-9111220D02*
X9131540Y-9141220D01*
X9167100Y-10411700D02*
X9197100Y-10441700D01*
X9197100Y-10411700D02*
X9167100Y-10441700D01*
X9207740Y-11783300D02*
X9237740Y-11813300D01*
X9237740Y-11783300D02*
X9207740Y-11813300D01*
X9294100Y-10467580D02*
X9324100Y-10497580D01*
X9324100Y-10467580D02*
X9294100Y-10497580D01*
X9355060Y-10960340D02*
X9385060Y-10990340D01*
X9385060Y-10960340D02*
X9355060Y-10990340D01*
X9385540Y-9019780D02*
X9415540Y-9049780D01*
X9415540Y-9019780D02*
X9385540Y-9049780D01*
X9593820Y-12895820D02*
X9623820Y-12925820D01*
X9623820Y-12895820D02*
X9593820Y-12925820D01*
X9614140Y-9050260D02*
X9644140Y-9080260D01*
X9644140Y-9050260D02*
X9614140Y-9080260D01*
X9624300Y-12565620D02*
X9654300Y-12595620D01*
X9654300Y-12565620D02*
X9624300Y-12595620D01*
X9736060Y-12464020D02*
X9766060Y-12494020D01*
X9766060Y-12464020D02*
X9736060Y-12494020D01*
X9786860Y-13810220D02*
X9816860Y-13840220D01*
X9816860Y-13810220D02*
X9786860Y-13840220D01*
X10477740Y-12555460D02*
X10507740Y-12585460D01*
X10507740Y-12555460D02*
X10477740Y-12585460D01*
X10680940Y-11889980D02*
X10710940Y-11919980D01*
X10710940Y-11889980D02*
X10680940Y-11919980D01*
X10820099Y-10628340D02*
X10850099Y-10658340D01*
X10850099Y-10628340D02*
X10820099Y-10658340D01*
X11011140Y-10401540D02*
X11041140Y-10431540D01*
X11041140Y-10401540D02*
X11011140Y-10431540D01*
X11016220Y-10660620D02*
X11046220Y-10690620D01*
X11046220Y-10660620D02*
X11016220Y-10690620D01*
X11437860Y-12977100D02*
X11467860Y-13007100D01*
X11467860Y-12977100D02*
X11437860Y-13007100D01*
X11529300Y-15273260D02*
X11559300Y-15303260D01*
X11559300Y-15273260D02*
X11529300Y-15303260D01*
X11590260Y-13693380D02*
X11620260Y-13723380D01*
X11620260Y-13693380D02*
X11590260Y-13723380D01*
X11600420Y-14897340D02*
X11630420Y-14927340D01*
X11630420Y-14897340D02*
X11600420Y-14927340D01*
X11651220Y-11336260D02*
X11681220Y-11366260D01*
X11681220Y-11336260D02*
X11651220Y-11366260D01*
X11707100Y-7988540D02*
X11737100Y-8018540D01*
X11737100Y-7988540D02*
X11707100Y-8018540D01*
X11762980Y-13571460D02*
X11792980Y-13601460D01*
X11792980Y-13571460D02*
X11762980Y-13601460D01*
X11778220Y-12199860D02*
X11808220Y-12229860D01*
X11808220Y-12199860D02*
X11778220Y-12229860D01*
X11788380Y-12342100D02*
X11818380Y-12372100D01*
X11818380Y-12342100D02*
X11788380Y-12372100D01*
X11971260Y-12204940D02*
X12001260Y-12234940D01*
X12001260Y-12204940D02*
X11971260Y-12234940D01*
X12032220Y-13317460D02*
X12062220Y-13347460D01*
X12062220Y-13317460D02*
X12032220Y-13347460D01*
X12133820Y-12408140D02*
X12163820Y-12438140D01*
X12163820Y-12408140D02*
X12133820Y-12438140D01*
X12235420Y-13688300D02*
X12265420Y-13718300D01*
X12265420Y-13688300D02*
X12235420Y-13718300D01*
X12255740Y-13185380D02*
X12285740Y-13215380D01*
X12285740Y-13185380D02*
X12255740Y-13215380D01*
X12301460Y-13525740D02*
X12331460Y-13555740D01*
X12331460Y-13525740D02*
X12301460Y-13555740D01*
X12418300Y-8196820D02*
X12448300Y-8226820D01*
X12448300Y-8196820D02*
X12418300Y-8226820D01*
X12443700Y-7917420D02*
X12473700Y-7947420D01*
X12473700Y-7917420D02*
X12443700Y-7947420D01*
X12530060Y-12596100D02*
X12560060Y-12626100D01*
X12560060Y-12596100D02*
X12530060Y-12626100D01*
X12530060Y-13317460D02*
X12560060Y-13347460D01*
X12560060Y-13317460D02*
X12530060Y-13347460D01*
X12545300Y-14211540D02*
X12575300Y-14241540D01*
X12575300Y-14211540D02*
X12545300Y-14241540D01*
X12570700Y-14699220D02*
X12600700Y-14729220D01*
X12600700Y-14699220D02*
X12570700Y-14729220D01*
X12723100Y-12794220D02*
X12753100Y-12824220D01*
X12753100Y-12794220D02*
X12723100Y-12824220D01*
X12784060Y-14902420D02*
X12814060Y-14932420D01*
X12814060Y-14902420D02*
X12784060Y-14932420D01*
X12794220Y-14399500D02*
X12824220Y-14429500D01*
X12824220Y-14399500D02*
X12794220Y-14429500D01*
X12850100Y-13388580D02*
X12880100Y-13418580D01*
X12880100Y-13388580D02*
X12850100Y-13418580D01*
X12921220Y-12575780D02*
X12951220Y-12605780D01*
X12951220Y-12575780D02*
X12921220Y-12605780D01*
X12987260Y-11783300D02*
X13017260Y-11813300D01*
X13017260Y-11783300D02*
X12987260Y-11813300D01*
X13170140Y-7460220D02*
X13200140Y-7490220D01*
X13200140Y-7460220D02*
X13170140Y-7490220D01*
X13302220Y-7368780D02*
X13332220Y-7398780D01*
X13332220Y-7368780D02*
X13302220Y-7398780D01*
X13302220Y-7963140D02*
X13332220Y-7993140D01*
X13332220Y-7963140D02*
X13302220Y-7993140D01*
X13358100Y-15344380D02*
X13388100Y-15374380D01*
X13388100Y-15344380D02*
X13358100Y-15374380D01*
X13431082Y-11700625D02*
X13461082Y-11730625D01*
X13461082Y-11700625D02*
X13431082Y-11730625D01*
X13525740Y-11813780D02*
X13555740Y-11843780D01*
X13555740Y-11813780D02*
X13525740Y-11843780D01*
X13622260Y-13469860D02*
X13652260Y-13499860D01*
X13652260Y-13469860D02*
X13622260Y-13499860D01*
X13622260Y-14927820D02*
X13652260Y-14957820D01*
X13652260Y-14927820D02*
X13622260Y-14957820D01*
X13693380Y-12778980D02*
X13723380Y-12808980D01*
X13723380Y-12778980D02*
X13693380Y-12808980D01*
X13998180Y-14440140D02*
X14028180Y-14470140D01*
X14028180Y-14440140D02*
X13998180Y-14470140D01*
X14008340Y-12098260D02*
X14038340Y-12128260D01*
X14038340Y-12098260D02*
X14008340Y-12128260D01*
X14023580Y-13378420D02*
X14053580Y-13408420D01*
X14053580Y-13378420D02*
X14023580Y-13408420D01*
X14150580Y-5631420D02*
X14180580Y-5661420D01*
X14180580Y-5631420D02*
X14150580Y-5661420D01*
X14297900Y-7973300D02*
X14327900Y-8003300D01*
X14327900Y-7973300D02*
X14297900Y-8003300D01*
D13*
X4328920Y-5088240D02*
G75*
G03*
X4328920Y-5088240I-45000J0D01*
G01*
X4582920Y-5088240D02*
G75*
G03*
X4582920Y-5088240I-45000J0D01*
G01*
D14*
X6141720Y-9583720D02*
X6141720Y-9683720D01*
X6091720Y-9633720D02*
X6191720Y-9633720D01*
X6141720Y-9837720D02*
X6141720Y-9937720D01*
X6091720Y-9887720D02*
X6191720Y-9887720D01*
X7454900Y-7013740D02*
X7454900Y-7113740D01*
X7404900Y-7063740D02*
X7504900Y-7063740D01*
X7576320Y-7511580D02*
X7576320Y-7611580D01*
X7526320Y-7561580D02*
X7626320Y-7561580D01*
X7708900Y-7013740D02*
X7708900Y-7113740D01*
X7658900Y-7063740D02*
X7758900Y-7063740D01*
X7830320Y-7511580D02*
X7830320Y-7611580D01*
X7780320Y-7561580D02*
X7880320Y-7561580D01*
X7962900Y-7013740D02*
X7962900Y-7113740D01*
X7912900Y-7063740D02*
X8012900Y-7063740D01*
X8901860Y-5341220D02*
X8901860Y-5441220D01*
X8851860Y-5391220D02*
X8951860Y-5391220D01*
X9155860Y-5341220D02*
X9155860Y-5441220D01*
X9105860Y-5391220D02*
X9205860Y-5391220D01*
X9409860Y-5341220D02*
X9409860Y-5441220D01*
X9359860Y-5391220D02*
X9459860Y-5391220D01*
X9663860Y-5341220D02*
X9663860Y-5441220D01*
X9613860Y-5391220D02*
X9713860Y-5391220D01*
X14117820Y-6574820D02*
X14117820Y-6674820D01*
X14067820Y-6624820D02*
X14167820Y-6624820D01*
X14117820Y-6828820D02*
X14117820Y-6928820D01*
X14067820Y-6878820D02*
X14167820Y-6878820D01*
X14117820Y-7082820D02*
X14117820Y-7182820D01*
X14067820Y-7132820D02*
X14167820Y-7132820D01*
X14117820Y-7336820D02*
X14117820Y-7436820D01*
X14067820Y-7386820D02*
X14167820Y-7386820D01*
X14117820Y-7590820D02*
X14117820Y-7690820D01*
X14067820Y-7640820D02*
X14167820Y-7640820D01*
X14371820Y-6574820D02*
X14371820Y-6674820D01*
X14321820Y-6624820D02*
X14421820Y-6624820D01*
X14371820Y-6828820D02*
X14371820Y-6928820D01*
X14321820Y-6878820D02*
X14421820Y-6878820D01*
X14371820Y-7082820D02*
X14371820Y-7182820D01*
X14321820Y-7132820D02*
X14421820Y-7132820D01*
X14371820Y-7336820D02*
X14371820Y-7436820D01*
X14321820Y-7386820D02*
X14421820Y-7386820D01*
X14371820Y-7590820D02*
X14371820Y-7690820D01*
X14321820Y-7640820D02*
X14421820Y-7640820D01*
D15*
X4743214Y-10839864D02*
X4743214Y-10765617D01*
X4668967Y-10765617D01*
X4668967Y-10839864D01*
X4743214Y-10839864D01*
X4743214Y-11489863D02*
X4743214Y-11415616D01*
X4668967Y-11415616D01*
X4668967Y-11489863D01*
X4743214Y-11489863D01*
X4785544Y-6070563D02*
X4785544Y-5996316D01*
X4711297Y-5996316D01*
X4711297Y-6070563D01*
X4785544Y-6070563D01*
X4785544Y-6720563D02*
X4785544Y-6646316D01*
X4711297Y-6646316D01*
X4711297Y-6720563D01*
X4785544Y-6720563D01*
X5193214Y-10839864D02*
X5193214Y-10765617D01*
X5118967Y-10765617D01*
X5118967Y-10839864D01*
X5193214Y-10839864D01*
X5193214Y-11489863D02*
X5193214Y-11415616D01*
X5118967Y-11415616D01*
X5118967Y-11489863D01*
X5193214Y-11489863D01*
X5235544Y-6070563D02*
X5235544Y-5996316D01*
X5161297Y-5996316D01*
X5161297Y-6070563D01*
X5235544Y-6070563D01*
X5235544Y-6720563D02*
X5235544Y-6646316D01*
X5161297Y-6646316D01*
X5161297Y-6720563D01*
X5235544Y-6720563D01*
X5393214Y-9689864D02*
X5393214Y-9615617D01*
X5318967Y-9615617D01*
X5318967Y-9689864D01*
X5393214Y-9689864D01*
X5393214Y-10339864D02*
X5393214Y-10265617D01*
X5318967Y-10265617D01*
X5318967Y-10339864D01*
X5393214Y-10339864D01*
X5735543Y-5020564D02*
X5735543Y-4946317D01*
X5661296Y-4946317D01*
X5661296Y-5020564D01*
X5735543Y-5020564D01*
X5735543Y-5670563D02*
X5735543Y-5596316D01*
X5661296Y-5596316D01*
X5661296Y-5670563D01*
X5735543Y-5670563D01*
X5735543Y-6070563D02*
X5735543Y-5996316D01*
X5661296Y-5996316D01*
X5661296Y-6070563D01*
X5735543Y-6070563D01*
X5735543Y-6720563D02*
X5735543Y-6646316D01*
X5661296Y-6646316D01*
X5661296Y-6720563D01*
X5735543Y-6720563D01*
X5735543Y-7120563D02*
X5735543Y-7046316D01*
X5661296Y-7046316D01*
X5661296Y-7120563D01*
X5735543Y-7120563D01*
X5735543Y-7770563D02*
X5735543Y-7696316D01*
X5661296Y-7696316D01*
X5661296Y-7770563D01*
X5735543Y-7770563D01*
X5843213Y-9689864D02*
X5843213Y-9615617D01*
X5768966Y-9615617D01*
X5768966Y-9689864D01*
X5843213Y-9689864D01*
X5843213Y-10339864D02*
X5843213Y-10265617D01*
X5768966Y-10265617D01*
X5768966Y-10339864D01*
X5843213Y-10339864D01*
X5993213Y-10839864D02*
X5993213Y-10765617D01*
X5918966Y-10765617D01*
X5918966Y-10839864D01*
X5993213Y-10839864D01*
X5993213Y-11489863D02*
X5993213Y-11415616D01*
X5918966Y-11415616D01*
X5918966Y-11489863D01*
X5993213Y-11489863D01*
X6185543Y-5020564D02*
X6185543Y-4946317D01*
X6111296Y-4946317D01*
X6111296Y-5020564D01*
X6185543Y-5020564D01*
X6185543Y-5670563D02*
X6185543Y-5596316D01*
X6111296Y-5596316D01*
X6111296Y-5670563D01*
X6185543Y-5670563D01*
X6185543Y-6070563D02*
X6185543Y-5996316D01*
X6111296Y-5996316D01*
X6111296Y-6070563D01*
X6185543Y-6070563D01*
X6185543Y-6720563D02*
X6185543Y-6646316D01*
X6111296Y-6646316D01*
X6111296Y-6720563D01*
X6185543Y-6720563D01*
X6185543Y-7120563D02*
X6185543Y-7046316D01*
X6111296Y-7046316D01*
X6111296Y-7120563D01*
X6185543Y-7120563D01*
X6185543Y-7770563D02*
X6185543Y-7696316D01*
X6111296Y-7696316D01*
X6111296Y-7770563D01*
X6185543Y-7770563D01*
X6443213Y-10839864D02*
X6443213Y-10765617D01*
X6368966Y-10765617D01*
X6368966Y-10839864D01*
X6443213Y-10839864D01*
X6443213Y-11489863D02*
X6443213Y-11415616D01*
X6368966Y-11415616D01*
X6368966Y-11489863D01*
X6443213Y-11489863D01*
X6643213Y-9689864D02*
X6643213Y-9615617D01*
X6568966Y-9615617D01*
X6568966Y-9689864D01*
X6643213Y-9689864D01*
X6643213Y-10339864D02*
X6643213Y-10265617D01*
X6568966Y-10265617D01*
X6568966Y-10339864D01*
X6643213Y-10339864D01*
X6685543Y-6070563D02*
X6685543Y-5996316D01*
X6611296Y-5996316D01*
X6611296Y-6070563D01*
X6685543Y-6070563D01*
X6685543Y-6720563D02*
X6685543Y-6646316D01*
X6611296Y-6646316D01*
X6611296Y-6720563D01*
X6685543Y-6720563D01*
X7093213Y-9689864D02*
X7093213Y-9615617D01*
X7018966Y-9615617D01*
X7018966Y-9689864D01*
X7093213Y-9689864D01*
X7093213Y-10339864D02*
X7093213Y-10265617D01*
X7018966Y-10265617D01*
X7018966Y-10339864D01*
X7093213Y-10339864D01*
X7135543Y-6070563D02*
X7135543Y-5996316D01*
X7061296Y-5996316D01*
X7061296Y-6070563D01*
X7135543Y-6070563D01*
X7135543Y-6720563D02*
X7135543Y-6646316D01*
X7061296Y-6646316D01*
X7061296Y-6720563D01*
X7135543Y-6720563D01*
X7243213Y-10839864D02*
X7243213Y-10765617D01*
X7168966Y-10765617D01*
X7168966Y-10839864D01*
X7243213Y-10839864D01*
X7243213Y-11489863D02*
X7243213Y-11415616D01*
X7168966Y-11415616D01*
X7168966Y-11489863D01*
X7243213Y-11489863D01*
X7693213Y-10839864D02*
X7693213Y-10765617D01*
X7618966Y-10765617D01*
X7618966Y-10839864D01*
X7693213Y-10839864D01*
X7693213Y-11489863D02*
X7693213Y-11415616D01*
X7618966Y-11415616D01*
X7618966Y-11489863D01*
X7693213Y-11489863D01*
X8493214Y-10839864D02*
X8493214Y-10765617D01*
X8418967Y-10765617D01*
X8418967Y-10839864D01*
X8493214Y-10839864D01*
X8493214Y-11489863D02*
X8493214Y-11415616D01*
X8418967Y-11415616D01*
X8418967Y-11489863D01*
X8493214Y-11489863D01*
X8943214Y-10839864D02*
X8943214Y-10765617D01*
X8868967Y-10765617D01*
X8868967Y-10839864D01*
X8943214Y-10839864D01*
X8943214Y-11489863D02*
X8943214Y-11415616D01*
X8868967Y-11415616D01*
X8868967Y-11489863D01*
X8943214Y-11489863D01*
X9143214Y-9689864D02*
X9143214Y-9615617D01*
X9068967Y-9615617D01*
X9068967Y-9689864D01*
X9143214Y-9689864D01*
X9143214Y-10339864D02*
X9143214Y-10265617D01*
X9068967Y-10265617D01*
X9068967Y-10339864D01*
X9143214Y-10339864D01*
X9593214Y-9689864D02*
X9593214Y-9615617D01*
X9518967Y-9615617D01*
X9518967Y-9689864D01*
X9593214Y-9689864D01*
X9593214Y-10339864D02*
X9593214Y-10265617D01*
X9518967Y-10265617D01*
X9518967Y-10339864D01*
X9593214Y-10339864D01*
X9743214Y-10839864D02*
X9743214Y-10765617D01*
X9668967Y-10765617D01*
X9668967Y-10839864D01*
X9743214Y-10839864D01*
X9743214Y-11489863D02*
X9743214Y-11415616D01*
X9668967Y-11415616D01*
X9668967Y-11489863D01*
X9743214Y-11489863D01*
X10193214Y-10839864D02*
X10193214Y-10765617D01*
X10118967Y-10765617D01*
X10118967Y-10839864D01*
X10193214Y-10839864D01*
X10193214Y-11489863D02*
X10193214Y-11415616D01*
X10118967Y-11415616D01*
X10118967Y-11489863D01*
X10193214Y-11489863D01*
X10393214Y-9689864D02*
X10393214Y-9615617D01*
X10318967Y-9615617D01*
X10318967Y-9689864D01*
X10393214Y-9689864D01*
X10393214Y-10339864D02*
X10393214Y-10265617D01*
X10318967Y-10265617D01*
X10318967Y-10339864D01*
X10393214Y-10339864D01*
X10843214Y-9689864D02*
X10843214Y-9615617D01*
X10768967Y-9615617D01*
X10768967Y-9689864D01*
X10843214Y-9689864D01*
X10843214Y-10339864D02*
X10843214Y-10265617D01*
X10768967Y-10265617D01*
X10768967Y-10339864D01*
X10843214Y-10339864D01*
X10993164Y-10839864D02*
X10993164Y-10765617D01*
X10918917Y-10765617D01*
X10918917Y-10839864D01*
X10993164Y-10839864D01*
X10993164Y-11489863D02*
X10993164Y-11415616D01*
X10918917Y-11415616D01*
X10918917Y-11489863D01*
X10993164Y-11489863D01*
X11443163Y-10839864D02*
X11443163Y-10765617D01*
X11368916Y-10765617D01*
X11368916Y-10839864D01*
X11443163Y-10839864D01*
X11443163Y-11489863D02*
X11443163Y-11415616D01*
X11368916Y-11415616D01*
X11368916Y-11489863D01*
X11443163Y-11489863D01*
X11643213Y-9689864D02*
X11643213Y-9615617D01*
X11568966Y-9615617D01*
X11568966Y-9689864D01*
X11643213Y-9689864D01*
X11643213Y-10339864D02*
X11643213Y-10265617D01*
X11568966Y-10265617D01*
X11568966Y-10339864D01*
X11643213Y-10339864D01*
X12093213Y-9689864D02*
X12093213Y-9615617D01*
X12018966Y-9615617D01*
X12018966Y-9689864D01*
X12093213Y-9689864D01*
X12093213Y-10339864D02*
X12093213Y-10265617D01*
X12018966Y-10265617D01*
X12018966Y-10339864D01*
X12093213Y-10339864D01*
X12243163Y-10839864D02*
X12243163Y-10765617D01*
X12168916Y-10765617D01*
X12168916Y-10839864D01*
X12243163Y-10839864D01*
X12243163Y-11489863D02*
X12243163Y-11415616D01*
X12168916Y-11415616D01*
X12168916Y-11489863D01*
X12243163Y-11489863D01*
X12685656Y-8112964D02*
X12685656Y-8038717D01*
X12611409Y-8038717D01*
X12611409Y-8112964D01*
X12685656Y-8112964D01*
X12685656Y-8762965D02*
X12685656Y-8688718D01*
X12611409Y-8688718D01*
X12611409Y-8762965D01*
X12685656Y-8762965D01*
X12693163Y-10839864D02*
X12693163Y-10765617D01*
X12618916Y-10765617D01*
X12618916Y-10839864D01*
X12693163Y-10839864D01*
X12693163Y-11489863D02*
X12693163Y-11415616D01*
X12618916Y-11415616D01*
X12618916Y-11489863D01*
X12693163Y-11489863D01*
X13135656Y-8112964D02*
X13135656Y-8038717D01*
X13061409Y-8038717D01*
X13061409Y-8112964D01*
X13135656Y-8112964D01*
X13135656Y-8762965D02*
X13135656Y-8688718D01*
X13061409Y-8688718D01*
X13061409Y-8762965D01*
X13135656Y-8762965D01*
X13493163Y-10839864D02*
X13493163Y-10765617D01*
X13418916Y-10765617D01*
X13418916Y-10839864D01*
X13493163Y-10839864D01*
X13493163Y-11489863D02*
X13493163Y-11415616D01*
X13418916Y-11415616D01*
X13418916Y-11489863D01*
X13493163Y-11489863D01*
X13943163Y-10839864D02*
X13943163Y-10765617D01*
X13868916Y-10765617D01*
X13868916Y-10839864D01*
X13943163Y-10839864D01*
X13943163Y-11489863D02*
X13943163Y-11415616D01*
X13868916Y-11415616D01*
X13868916Y-11489863D01*
X13943163Y-11489863D01*
D16*
X12622700Y-7181750D02*
X12677700Y-7126750D01*
X12622700Y-7071750D01*
X12567700Y-7126750D01*
X12622700Y-7181750D01*
X12872700Y-7181750D02*
X12927700Y-7126750D01*
X12872700Y-7071750D01*
X12817700Y-7126750D01*
X12872700Y-7181750D01*
X13122700Y-7181750D02*
X13177700Y-7126750D01*
X13122700Y-7071750D01*
X13067700Y-7126750D01*
X13122700Y-7181750D01*
D17*
X3913030Y-8233380D02*
X4043030Y-8363380D01*
X4043030Y-8233380D02*
X3913030Y-8363380D01*
X4043030Y-8298380D02*
G75*
G03*
X4043030Y-8298380I-65000J0D01*
G01*
X3913030Y-8893380D02*
X4043030Y-9023380D01*
X4043030Y-8893380D02*
X3913030Y-9023380D01*
X4043030Y-8958380D02*
G75*
G03*
X4043030Y-8958380I-65000J0D01*
G01*
D18*
X3775920Y-13153440D02*
X3935920Y-13313440D01*
X3935920Y-13153440D02*
X3775920Y-13313440D01*
X3855920Y-13153440D02*
X3855920Y-13313440D01*
X3775920Y-13233440D02*
X3935920Y-13233440D01*
X3776420Y-14093440D02*
X3936420Y-14253440D01*
X3936420Y-14093440D02*
X3776420Y-14253440D01*
X3856420Y-14093440D02*
X3856420Y-14253440D01*
X3776420Y-14173440D02*
X3936420Y-14173440D01*
X3776420Y-15031080D02*
X3936420Y-15191080D01*
X3936420Y-15031080D02*
X3776420Y-15191080D01*
X3856420Y-15031080D02*
X3856420Y-15191080D01*
X3776420Y-15111080D02*
X3936420Y-15111080D01*
X4605920Y-13153440D02*
X4765920Y-13313440D01*
X4765920Y-13153440D02*
X4605920Y-13313440D01*
X4685920Y-13153440D02*
X4685920Y-13313440D01*
X4605920Y-13233440D02*
X4765920Y-13233440D01*
X4606420Y-14093440D02*
X4766420Y-14253440D01*
X4766420Y-14093440D02*
X4606420Y-14253440D01*
X4686420Y-14093440D02*
X4686420Y-14253440D01*
X4606420Y-14173440D02*
X4766420Y-14173440D01*
X4606420Y-15031080D02*
X4766420Y-15191080D01*
X4766420Y-15031080D02*
X4606420Y-15191080D01*
X4686420Y-15031080D02*
X4686420Y-15191080D01*
X4606420Y-15111080D02*
X4766420Y-15111080D01*
X4915920Y-13153440D02*
X5075920Y-13313440D01*
X5075920Y-13153440D02*
X4915920Y-13313440D01*
X4995920Y-13153440D02*
X4995920Y-13313440D01*
X4915920Y-13233440D02*
X5075920Y-13233440D01*
X4916420Y-14093440D02*
X5076420Y-14253440D01*
X5076420Y-14093440D02*
X4916420Y-14253440D01*
X4996420Y-14093440D02*
X4996420Y-14253440D01*
X4916420Y-14173440D02*
X5076420Y-14173440D01*
X4916420Y-15031080D02*
X5076420Y-15191080D01*
X5076420Y-15031080D02*
X4916420Y-15191080D01*
X4996420Y-15031080D02*
X4996420Y-15191080D01*
X4916420Y-15111080D02*
X5076420Y-15111080D01*
X6976420Y-13153440D02*
X7136420Y-13313440D01*
X7136420Y-13153440D02*
X6976420Y-13313440D01*
X7056420Y-13153440D02*
X7056420Y-13313440D01*
X6976420Y-13233440D02*
X7136420Y-13233440D01*
X6976420Y-14093440D02*
X7136420Y-14253440D01*
X7136420Y-14093440D02*
X6976420Y-14253440D01*
X7056420Y-14093440D02*
X7056420Y-14253440D01*
X6976420Y-14173440D02*
X7136420Y-14173440D01*
X6976420Y-15031080D02*
X7136420Y-15191080D01*
X7136420Y-15031080D02*
X6976420Y-15191080D01*
X7056420Y-15031080D02*
X7056420Y-15191080D01*
X6976420Y-15111080D02*
X7136420Y-15111080D01*
X7806420Y-13153440D02*
X7966420Y-13313440D01*
X7966420Y-13153440D02*
X7806420Y-13313440D01*
X7886420Y-13153440D02*
X7886420Y-13313440D01*
X7806420Y-13233440D02*
X7966420Y-13233440D01*
X7806420Y-14093440D02*
X7966420Y-14253440D01*
X7966420Y-14093440D02*
X7806420Y-14253440D01*
X7886420Y-14093440D02*
X7886420Y-14253440D01*
X7806420Y-14173440D02*
X7966420Y-14173440D01*
X7806420Y-15031080D02*
X7966420Y-15191080D01*
X7966420Y-15031080D02*
X7806420Y-15191080D01*
X7886420Y-15031080D02*
X7886420Y-15191080D01*
X7806420Y-15111080D02*
X7966420Y-15111080D01*
X8116420Y-13153440D02*
X8276420Y-13313440D01*
X8276420Y-13153440D02*
X8116420Y-13313440D01*
X8196420Y-13153440D02*
X8196420Y-13313440D01*
X8116420Y-13233440D02*
X8276420Y-13233440D01*
X8116420Y-14093440D02*
X8276420Y-14253440D01*
X8276420Y-14093440D02*
X8116420Y-14253440D01*
X8196420Y-14093440D02*
X8196420Y-14253440D01*
X8116420Y-14173440D02*
X8276420Y-14173440D01*
X8116420Y-15031080D02*
X8276420Y-15191080D01*
X8276420Y-15031080D02*
X8116420Y-15191080D01*
X8196420Y-15031080D02*
X8196420Y-15191080D01*
X8116420Y-15111080D02*
X8276420Y-15111080D01*
X10126420Y-13153440D02*
X10286420Y-13313440D01*
X10286420Y-13153440D02*
X10126420Y-13313440D01*
X10206420Y-13153440D02*
X10206420Y-13313440D01*
X10126420Y-13233440D02*
X10286420Y-13233440D01*
X10126420Y-14093440D02*
X10286420Y-14253440D01*
X10286420Y-14093440D02*
X10126420Y-14253440D01*
X10206420Y-14093440D02*
X10206420Y-14253440D01*
X10126420Y-14173440D02*
X10286420Y-14173440D01*
X10126420Y-15031080D02*
X10286420Y-15191080D01*
X10286420Y-15031080D02*
X10126420Y-15191080D01*
X10206420Y-15031080D02*
X10206420Y-15191080D01*
X10126420Y-15111080D02*
X10286420Y-15111080D01*
X10956420Y-13153440D02*
X11116420Y-13313440D01*
X11116420Y-13153440D02*
X10956420Y-13313440D01*
X11036420Y-13153440D02*
X11036420Y-13313440D01*
X10956420Y-13233440D02*
X11116420Y-13233440D01*
X10956420Y-14093440D02*
X11116420Y-14253440D01*
X11116420Y-14093440D02*
X10956420Y-14253440D01*
X11036420Y-14093440D02*
X11036420Y-14253440D01*
X10956420Y-14173440D02*
X11116420Y-14173440D01*
X10956420Y-15031080D02*
X11116420Y-15191080D01*
X11116420Y-15031080D02*
X10956420Y-15191080D01*
X11036420Y-15031080D02*
X11036420Y-15191080D01*
X10956420Y-15111080D02*
X11116420Y-15111080D01*
X11266420Y-13153440D02*
X11426420Y-13313440D01*
X11426420Y-13153440D02*
X11266420Y-13313440D01*
X11346420Y-13153440D02*
X11346420Y-13313440D01*
X11266420Y-13233440D02*
X11426420Y-13233440D01*
X11266420Y-14093440D02*
X11426420Y-14253440D01*
X11426420Y-14093440D02*
X11266420Y-14253440D01*
X11346420Y-14093440D02*
X11346420Y-14253440D01*
X11266420Y-14173440D02*
X11426420Y-14173440D01*
X11266420Y-15031080D02*
X11426420Y-15191080D01*
X11426420Y-15031080D02*
X11266420Y-15191080D01*
X11346420Y-15031080D02*
X11346420Y-15191080D01*
X11266420Y-15111080D02*
X11426420Y-15111080D01*
X13276420Y-13153440D02*
X13436420Y-13313440D01*
X13436420Y-13153440D02*
X13276420Y-13313440D01*
X13356420Y-13153440D02*
X13356420Y-13313440D01*
X13276420Y-13233440D02*
X13436420Y-13233440D01*
X13276420Y-14093440D02*
X13436420Y-14253440D01*
X13436420Y-14093440D02*
X13276420Y-14253440D01*
X13356420Y-14093440D02*
X13356420Y-14253440D01*
X13276420Y-14173440D02*
X13436420Y-14173440D01*
X13276420Y-15033440D02*
X13436420Y-15193440D01*
X13436420Y-15033440D02*
X13276420Y-15193440D01*
X13356420Y-15033440D02*
X13356420Y-15193440D01*
X13276420Y-15113440D02*
X13436420Y-15113440D01*
X14106420Y-13153440D02*
X14266420Y-13313440D01*
X14266420Y-13153440D02*
X14106420Y-13313440D01*
X14186420Y-13153440D02*
X14186420Y-13313440D01*
X14106420Y-13233440D02*
X14266420Y-13233440D01*
X14106420Y-14093440D02*
X14266420Y-14253440D01*
X14266420Y-14093440D02*
X14106420Y-14253440D01*
X14186420Y-14093440D02*
X14186420Y-14253440D01*
X14106420Y-14173440D02*
X14266420Y-14173440D01*
X14106420Y-15033440D02*
X14266420Y-15193440D01*
X14266420Y-15033440D02*
X14106420Y-15193440D01*
X14186420Y-15033440D02*
X14186420Y-15193440D01*
X14106420Y-15113440D02*
X14266420Y-15113440D01*
X14416420Y-13153440D02*
X14576420Y-13313440D01*
X14576420Y-13153440D02*
X14416420Y-13313440D01*
X14496420Y-13153440D02*
X14496420Y-13313440D01*
X14416420Y-13233440D02*
X14576420Y-13233440D01*
X14416420Y-14093440D02*
X14576420Y-14253440D01*
X14576420Y-14093440D02*
X14416420Y-14253440D01*
X14496420Y-14093440D02*
X14496420Y-14253440D01*
X14416420Y-14173440D02*
X14576420Y-14173440D01*
X14416420Y-15033440D02*
X14576420Y-15193440D01*
X14576420Y-15033440D02*
X14416420Y-15193440D01*
X14496420Y-15033440D02*
X14496420Y-15193440D01*
X14416420Y-15113440D02*
X14576420Y-15113440D01*
D19*
X12144585Y-6218635D02*
X12460815Y-6534865D01*
X12460815Y-6218635D02*
X12144585Y-6534865D01*
X12414505Y-6488555D02*
X12414505Y-6264945D01*
X12190895Y-6264945D01*
X12190895Y-6488555D01*
X12414505Y-6488555D01*
X13284585Y-6218635D02*
X13600815Y-6534865D01*
X13600815Y-6218635D02*
X13284585Y-6534865D01*
X13554505Y-6488555D02*
X13554505Y-6264945D01*
X13330895Y-6264945D01*
X13330895Y-6488555D01*
X13554505Y-6488555D01*
D11*
X3951039Y-15898916D02*
X3951039Y-15698916D01*
X3998658Y-15698916D01*
X4027229Y-15708440D01*
X4046277Y-15727488D01*
X4055801Y-15746535D01*
X4065325Y-15784630D01*
X4065325Y-15813202D01*
X4055801Y-15851297D01*
X4046277Y-15870345D01*
X4027229Y-15889392D01*
X3998658Y-15898916D01*
X3951039Y-15898916D01*
X4151039Y-15898916D02*
X4151039Y-15765583D01*
X4151039Y-15803678D02*
X4160563Y-15784630D01*
X4170087Y-15775107D01*
X4189134Y-15765583D01*
X4208182Y-15765583D01*
X4274849Y-15898916D02*
X4274849Y-15765583D01*
X4274849Y-15698916D02*
X4265325Y-15708440D01*
X4274849Y-15717964D01*
X4284372Y-15708440D01*
X4274849Y-15698916D01*
X4274849Y-15717964D01*
X4398658Y-15898916D02*
X4379610Y-15889392D01*
X4370087Y-15870345D01*
X4370087Y-15698916D01*
X4503420Y-15898916D02*
X4484372Y-15889392D01*
X4474849Y-15870345D01*
X4474849Y-15698916D01*
X4731991Y-15898916D02*
X4731991Y-15698916D01*
X4798658Y-15841773D01*
X4865325Y-15698916D01*
X4865325Y-15898916D01*
X5046277Y-15898916D02*
X5046277Y-15794154D01*
X5036753Y-15775107D01*
X5017706Y-15765583D01*
X4979610Y-15765583D01*
X4960563Y-15775107D01*
X5046277Y-15889392D02*
X5027230Y-15898916D01*
X4979610Y-15898916D01*
X4960563Y-15889392D01*
X4951039Y-15870345D01*
X4951039Y-15851297D01*
X4960563Y-15832249D01*
X4979610Y-15822726D01*
X5027230Y-15822726D01*
X5046277Y-15813202D01*
X5141515Y-15765583D02*
X5141515Y-15965583D01*
X5141515Y-15775107D02*
X5160563Y-15765583D01*
X5198658Y-15765583D01*
X5217706Y-15775107D01*
X5227230Y-15784630D01*
X5236753Y-15803678D01*
X5236753Y-15860821D01*
X5227230Y-15879868D01*
X5217706Y-15889392D01*
X5198658Y-15898916D01*
X5160563Y-15898916D01*
X5141515Y-15889392D01*
X5322468Y-15879868D02*
X5331991Y-15889392D01*
X5322468Y-15898916D01*
X5312944Y-15889392D01*
X5322468Y-15879868D01*
X5322468Y-15898916D01*
X5322468Y-15775107D02*
X5331991Y-15784630D01*
X5322468Y-15794154D01*
X5312944Y-15784630D01*
X5322468Y-15775107D01*
X5322468Y-15794154D01*
D12*
X3663420Y-16213440D02*
X3693420Y-16243440D01*
X3693420Y-16213440D02*
X3663420Y-16243440D01*
D11*
X3989134Y-16118916D02*
X4008182Y-16118916D01*
X4027229Y-16128440D01*
X4036753Y-16137964D01*
X4046277Y-16157011D01*
X4055801Y-16195107D01*
X4055801Y-16242726D01*
X4046277Y-16280821D01*
X4036753Y-16299868D01*
X4027229Y-16309392D01*
X4008182Y-16318916D01*
X3989134Y-16318916D01*
X3970087Y-16309392D01*
X3960563Y-16299868D01*
X3951039Y-16280821D01*
X3941515Y-16242726D01*
X3941515Y-16195107D01*
X3951039Y-16157011D01*
X3960563Y-16137964D01*
X3970087Y-16128440D01*
X3989134Y-16118916D01*
X4141515Y-16299868D02*
X4151039Y-16309392D01*
X4141515Y-16318916D01*
X4131991Y-16309392D01*
X4141515Y-16299868D01*
X4141515Y-16318916D01*
X4217706Y-16118916D02*
X4341515Y-16118916D01*
X4274849Y-16195107D01*
X4303420Y-16195107D01*
X4322468Y-16204630D01*
X4331991Y-16214154D01*
X4341515Y-16233202D01*
X4341515Y-16280821D01*
X4331991Y-16299868D01*
X4322468Y-16309392D01*
X4303420Y-16318916D01*
X4246277Y-16318916D01*
X4227230Y-16309392D01*
X4217706Y-16299868D01*
X4465325Y-16118916D02*
X4484372Y-16118916D01*
X4503420Y-16128440D01*
X4512944Y-16137964D01*
X4522468Y-16157011D01*
X4531991Y-16195107D01*
X4531991Y-16242726D01*
X4522468Y-16280821D01*
X4512944Y-16299868D01*
X4503420Y-16309392D01*
X4484372Y-16318916D01*
X4465325Y-16318916D01*
X4446277Y-16309392D01*
X4436753Y-16299868D01*
X4427230Y-16280821D01*
X4417706Y-16242726D01*
X4417706Y-16195107D01*
X4427230Y-16157011D01*
X4436753Y-16137964D01*
X4446277Y-16128440D01*
X4465325Y-16118916D01*
X4655801Y-16118916D02*
X4674849Y-16118916D01*
X4693896Y-16128440D01*
X4703420Y-16137964D01*
X4712944Y-16157011D01*
X4722468Y-16195107D01*
X4722468Y-16242726D01*
X4712944Y-16280821D01*
X4703420Y-16299868D01*
X4693896Y-16309392D01*
X4674849Y-16318916D01*
X4655801Y-16318916D01*
X4636753Y-16309392D01*
X4627230Y-16299868D01*
X4617706Y-16280821D01*
X4608182Y-16242726D01*
X4608182Y-16195107D01*
X4617706Y-16157011D01*
X4627230Y-16137964D01*
X4636753Y-16128440D01*
X4655801Y-16118916D01*
X4808182Y-16318916D02*
X4808182Y-16185583D01*
X4808182Y-16204630D02*
X4817706Y-16195107D01*
X4836753Y-16185583D01*
X4865325Y-16185583D01*
X4884372Y-16195107D01*
X4893896Y-16214154D01*
X4893896Y-16318916D01*
X4893896Y-16214154D02*
X4903420Y-16195107D01*
X4922468Y-16185583D01*
X4951039Y-16185583D01*
X4970087Y-16195107D01*
X4979610Y-16214154D01*
X4979610Y-16318916D01*
X5074849Y-16318916D02*
X5074849Y-16185583D01*
X5074849Y-16204630D02*
X5084372Y-16195107D01*
X5103420Y-16185583D01*
X5131991Y-16185583D01*
X5151039Y-16195107D01*
X5160563Y-16214154D01*
X5160563Y-16318916D01*
X5160563Y-16214154D02*
X5170087Y-16195107D01*
X5189134Y-16185583D01*
X5217706Y-16185583D01*
X5236753Y-16195107D01*
X5246277Y-16214154D01*
X5246277Y-16318916D01*
X5636753Y-16109392D02*
X5465325Y-16366535D01*
X5893896Y-16118916D02*
X5912944Y-16118916D01*
X5931991Y-16128440D01*
X5941515Y-16137964D01*
X5951039Y-16157011D01*
X5960563Y-16195107D01*
X5960563Y-16242726D01*
X5951039Y-16280821D01*
X5941515Y-16299868D01*
X5931991Y-16309392D01*
X5912944Y-16318916D01*
X5893896Y-16318916D01*
X5874848Y-16309392D01*
X5865325Y-16299868D01*
X5855801Y-16280821D01*
X5846277Y-16242726D01*
X5846277Y-16195107D01*
X5855801Y-16157011D01*
X5865325Y-16137964D01*
X5874848Y-16128440D01*
X5893896Y-16118916D01*
X6046277Y-16299868D02*
X6055801Y-16309392D01*
X6046277Y-16318916D01*
X6036753Y-16309392D01*
X6046277Y-16299868D01*
X6046277Y-16318916D01*
X6179610Y-16118916D02*
X6198658Y-16118916D01*
X6217706Y-16128440D01*
X6227229Y-16137964D01*
X6236753Y-16157011D01*
X6246277Y-16195107D01*
X6246277Y-16242726D01*
X6236753Y-16280821D01*
X6227229Y-16299868D01*
X6217706Y-16309392D01*
X6198658Y-16318916D01*
X6179610Y-16318916D01*
X6160563Y-16309392D01*
X6151039Y-16299868D01*
X6141515Y-16280821D01*
X6131991Y-16242726D01*
X6131991Y-16195107D01*
X6141515Y-16157011D01*
X6151039Y-16137964D01*
X6160563Y-16128440D01*
X6179610Y-16118916D01*
X6436753Y-16318916D02*
X6322468Y-16318916D01*
X6379610Y-16318916D02*
X6379610Y-16118916D01*
X6360563Y-16147488D01*
X6341515Y-16166535D01*
X6322468Y-16176059D01*
X6627229Y-16318916D02*
X6512944Y-16318916D01*
X6570087Y-16318916D02*
X6570087Y-16118916D01*
X6551039Y-16147488D01*
X6531991Y-16166535D01*
X6512944Y-16176059D01*
X6741515Y-16204630D02*
X6722468Y-16195107D01*
X6712944Y-16185583D01*
X6703420Y-16166535D01*
X6703420Y-16157011D01*
X6712944Y-16137964D01*
X6722468Y-16128440D01*
X6741515Y-16118916D01*
X6779610Y-16118916D01*
X6798658Y-16128440D01*
X6808182Y-16137964D01*
X6817706Y-16157011D01*
X6817706Y-16166535D01*
X6808182Y-16185583D01*
X6798658Y-16195107D01*
X6779610Y-16204630D01*
X6741515Y-16204630D01*
X6722468Y-16214154D01*
X6712944Y-16223678D01*
X6703420Y-16242726D01*
X6703420Y-16280821D01*
X6712944Y-16299868D01*
X6722468Y-16309392D01*
X6741515Y-16318916D01*
X6779610Y-16318916D01*
X6798658Y-16309392D01*
X6808182Y-16299868D01*
X6817706Y-16280821D01*
X6817706Y-16242726D01*
X6808182Y-16223678D01*
X6798658Y-16214154D01*
X6779610Y-16204630D01*
X6893896Y-16118916D02*
X6893896Y-16157011D01*
X6970087Y-16118916D02*
X6970087Y-16157011D01*
X7265325Y-16395107D02*
X7255801Y-16385583D01*
X7236753Y-16357011D01*
X7227229Y-16337964D01*
X7217706Y-16309392D01*
X7208182Y-16261773D01*
X7208182Y-16223678D01*
X7217706Y-16176059D01*
X7227229Y-16147488D01*
X7236753Y-16128440D01*
X7255801Y-16099868D01*
X7265325Y-16090345D01*
X7331991Y-16137964D02*
X7341515Y-16128440D01*
X7360563Y-16118916D01*
X7408182Y-16118916D01*
X7427229Y-16128440D01*
X7436753Y-16137964D01*
X7446277Y-16157011D01*
X7446277Y-16176059D01*
X7436753Y-16204630D01*
X7322468Y-16318916D01*
X7446277Y-16318916D01*
X7570087Y-16118916D02*
X7589134Y-16118916D01*
X7608182Y-16128440D01*
X7617706Y-16137964D01*
X7627229Y-16157011D01*
X7636753Y-16195107D01*
X7636753Y-16242726D01*
X7627229Y-16280821D01*
X7617706Y-16299868D01*
X7608182Y-16309392D01*
X7589134Y-16318916D01*
X7570087Y-16318916D01*
X7551039Y-16309392D01*
X7541515Y-16299868D01*
X7531991Y-16280821D01*
X7522468Y-16242726D01*
X7522468Y-16195107D01*
X7531991Y-16157011D01*
X7541515Y-16137964D01*
X7551039Y-16128440D01*
X7570087Y-16118916D01*
X7827229Y-16318916D02*
X7712944Y-16318916D01*
X7770087Y-16318916D02*
X7770087Y-16118916D01*
X7751039Y-16147488D01*
X7731991Y-16166535D01*
X7712944Y-16176059D01*
X8065325Y-16318916D02*
X8065325Y-16118916D01*
X8151039Y-16318916D02*
X8151039Y-16214154D01*
X8141515Y-16195107D01*
X8122468Y-16185583D01*
X8093896Y-16185583D01*
X8074848Y-16195107D01*
X8065325Y-16204630D01*
X8274848Y-16318916D02*
X8255801Y-16309392D01*
X8246277Y-16299868D01*
X8236753Y-16280821D01*
X8236753Y-16223678D01*
X8246277Y-16204630D01*
X8255801Y-16195107D01*
X8274848Y-16185583D01*
X8303420Y-16185583D01*
X8322468Y-16195107D01*
X8331991Y-16204630D01*
X8341515Y-16223678D01*
X8341515Y-16280821D01*
X8331991Y-16299868D01*
X8322468Y-16309392D01*
X8303420Y-16318916D01*
X8274848Y-16318916D01*
X8455801Y-16318916D02*
X8436753Y-16309392D01*
X8427230Y-16290345D01*
X8427230Y-16118916D01*
X8608182Y-16309392D02*
X8589134Y-16318916D01*
X8551039Y-16318916D01*
X8531991Y-16309392D01*
X8522468Y-16290345D01*
X8522468Y-16214154D01*
X8531991Y-16195107D01*
X8551039Y-16185583D01*
X8589134Y-16185583D01*
X8608182Y-16195107D01*
X8617706Y-16214154D01*
X8617706Y-16233202D01*
X8522468Y-16252249D01*
X8693896Y-16309392D02*
X8712944Y-16318916D01*
X8751039Y-16318916D01*
X8770087Y-16309392D01*
X8779610Y-16290345D01*
X8779610Y-16280821D01*
X8770087Y-16261773D01*
X8751039Y-16252249D01*
X8722468Y-16252249D01*
X8703420Y-16242726D01*
X8693896Y-16223678D01*
X8693896Y-16214154D01*
X8703420Y-16195107D01*
X8722468Y-16185583D01*
X8751039Y-16185583D01*
X8770087Y-16195107D01*
X8846277Y-16395107D02*
X8855801Y-16385583D01*
X8874849Y-16357011D01*
X8884372Y-16337964D01*
X8893896Y-16309392D01*
X8903420Y-16261773D01*
X8903420Y-16223678D01*
X8893896Y-16176059D01*
X8884372Y-16147488D01*
X8874849Y-16128440D01*
X8855801Y-16099868D01*
X8846277Y-16090345D01*
D13*
X3693420Y-16492440D02*
G75*
G03*
X3693420Y-16492440I-45000J0D01*
G01*
D11*
X3989134Y-16382916D02*
X4008182Y-16382916D01*
X4027229Y-16392440D01*
X4036753Y-16401964D01*
X4046277Y-16421011D01*
X4055801Y-16459107D01*
X4055801Y-16506726D01*
X4046277Y-16544821D01*
X4036753Y-16563868D01*
X4027229Y-16573392D01*
X4008182Y-16582916D01*
X3989134Y-16582916D01*
X3970087Y-16573392D01*
X3960563Y-16563868D01*
X3951039Y-16544821D01*
X3941515Y-16506726D01*
X3941515Y-16459107D01*
X3951039Y-16421011D01*
X3960563Y-16401964D01*
X3970087Y-16392440D01*
X3989134Y-16382916D01*
X4141515Y-16563868D02*
X4151039Y-16573392D01*
X4141515Y-16582916D01*
X4131991Y-16573392D01*
X4141515Y-16563868D01*
X4141515Y-16582916D01*
X4246277Y-16582916D02*
X4284372Y-16582916D01*
X4303420Y-16573392D01*
X4312944Y-16563868D01*
X4331991Y-16535297D01*
X4341515Y-16497202D01*
X4341515Y-16421011D01*
X4331991Y-16401964D01*
X4322468Y-16392440D01*
X4303420Y-16382916D01*
X4265325Y-16382916D01*
X4246277Y-16392440D01*
X4236753Y-16401964D01*
X4227230Y-16421011D01*
X4227230Y-16468630D01*
X4236753Y-16487678D01*
X4246277Y-16497202D01*
X4265325Y-16506726D01*
X4303420Y-16506726D01*
X4322468Y-16497202D01*
X4331991Y-16487678D01*
X4341515Y-16468630D01*
X4465325Y-16382916D02*
X4484372Y-16382916D01*
X4503420Y-16392440D01*
X4512944Y-16401964D01*
X4522468Y-16421011D01*
X4531991Y-16459107D01*
X4531991Y-16506726D01*
X4522468Y-16544821D01*
X4512944Y-16563868D01*
X4503420Y-16573392D01*
X4484372Y-16582916D01*
X4465325Y-16582916D01*
X4446277Y-16573392D01*
X4436753Y-16563868D01*
X4427230Y-16544821D01*
X4417706Y-16506726D01*
X4417706Y-16459107D01*
X4427230Y-16421011D01*
X4436753Y-16401964D01*
X4446277Y-16392440D01*
X4465325Y-16382916D01*
X4655801Y-16382916D02*
X4674849Y-16382916D01*
X4693896Y-16392440D01*
X4703420Y-16401964D01*
X4712944Y-16421011D01*
X4722468Y-16459107D01*
X4722468Y-16506726D01*
X4712944Y-16544821D01*
X4703420Y-16563868D01*
X4693896Y-16573392D01*
X4674849Y-16582916D01*
X4655801Y-16582916D01*
X4636753Y-16573392D01*
X4627230Y-16563868D01*
X4617706Y-16544821D01*
X4608182Y-16506726D01*
X4608182Y-16459107D01*
X4617706Y-16421011D01*
X4627230Y-16401964D01*
X4636753Y-16392440D01*
X4655801Y-16382916D01*
X4808182Y-16582916D02*
X4808182Y-16449583D01*
X4808182Y-16468630D02*
X4817706Y-16459107D01*
X4836753Y-16449583D01*
X4865325Y-16449583D01*
X4884372Y-16459107D01*
X4893896Y-16478154D01*
X4893896Y-16582916D01*
X4893896Y-16478154D02*
X4903420Y-16459107D01*
X4922468Y-16449583D01*
X4951039Y-16449583D01*
X4970087Y-16459107D01*
X4979610Y-16478154D01*
X4979610Y-16582916D01*
X5074849Y-16582916D02*
X5074849Y-16449583D01*
X5074849Y-16468630D02*
X5084372Y-16459107D01*
X5103420Y-16449583D01*
X5131991Y-16449583D01*
X5151039Y-16459107D01*
X5160563Y-16478154D01*
X5160563Y-16582916D01*
X5160563Y-16478154D02*
X5170087Y-16459107D01*
X5189134Y-16449583D01*
X5217706Y-16449583D01*
X5236753Y-16459107D01*
X5246277Y-16478154D01*
X5246277Y-16582916D01*
X5636753Y-16373392D02*
X5465325Y-16630535D01*
X5893896Y-16382916D02*
X5912944Y-16382916D01*
X5931991Y-16392440D01*
X5941515Y-16401964D01*
X5951039Y-16421011D01*
X5960563Y-16459107D01*
X5960563Y-16506726D01*
X5951039Y-16544821D01*
X5941515Y-16563868D01*
X5931991Y-16573392D01*
X5912944Y-16582916D01*
X5893896Y-16582916D01*
X5874848Y-16573392D01*
X5865325Y-16563868D01*
X5855801Y-16544821D01*
X5846277Y-16506726D01*
X5846277Y-16459107D01*
X5855801Y-16421011D01*
X5865325Y-16401964D01*
X5874848Y-16392440D01*
X5893896Y-16382916D01*
X6046277Y-16563868D02*
X6055801Y-16573392D01*
X6046277Y-16582916D01*
X6036753Y-16573392D01*
X6046277Y-16563868D01*
X6046277Y-16582916D01*
X6179610Y-16382916D02*
X6198658Y-16382916D01*
X6217706Y-16392440D01*
X6227229Y-16401964D01*
X6236753Y-16421011D01*
X6246277Y-16459107D01*
X6246277Y-16506726D01*
X6236753Y-16544821D01*
X6227229Y-16563868D01*
X6217706Y-16573392D01*
X6198658Y-16582916D01*
X6179610Y-16582916D01*
X6160563Y-16573392D01*
X6151039Y-16563868D01*
X6141515Y-16544821D01*
X6131991Y-16506726D01*
X6131991Y-16459107D01*
X6141515Y-16421011D01*
X6151039Y-16401964D01*
X6160563Y-16392440D01*
X6179610Y-16382916D01*
X6312944Y-16382916D02*
X6436753Y-16382916D01*
X6370087Y-16459107D01*
X6398658Y-16459107D01*
X6417706Y-16468630D01*
X6427229Y-16478154D01*
X6436753Y-16497202D01*
X6436753Y-16544821D01*
X6427229Y-16563868D01*
X6417706Y-16573392D01*
X6398658Y-16582916D01*
X6341515Y-16582916D01*
X6322468Y-16573392D01*
X6312944Y-16563868D01*
X6617706Y-16382916D02*
X6522468Y-16382916D01*
X6512944Y-16478154D01*
X6522468Y-16468630D01*
X6541515Y-16459107D01*
X6589134Y-16459107D01*
X6608182Y-16468630D01*
X6617706Y-16478154D01*
X6627229Y-16497202D01*
X6627229Y-16544821D01*
X6617706Y-16563868D01*
X6608182Y-16573392D01*
X6589134Y-16582916D01*
X6541515Y-16582916D01*
X6522468Y-16573392D01*
X6512944Y-16563868D01*
X6798658Y-16449583D02*
X6798658Y-16582916D01*
X6751039Y-16373392D02*
X6703420Y-16516249D01*
X6827229Y-16516249D01*
X6893896Y-16382916D02*
X6893896Y-16421011D01*
X6970087Y-16382916D02*
X6970087Y-16421011D01*
X7265325Y-16659107D02*
X7255801Y-16649583D01*
X7236753Y-16621011D01*
X7227229Y-16601964D01*
X7217706Y-16573392D01*
X7208182Y-16525773D01*
X7208182Y-16487678D01*
X7217706Y-16440059D01*
X7227229Y-16411488D01*
X7236753Y-16392440D01*
X7255801Y-16363868D01*
X7265325Y-16354345D01*
X7331991Y-16401964D02*
X7341515Y-16392440D01*
X7360563Y-16382916D01*
X7408182Y-16382916D01*
X7427229Y-16392440D01*
X7436753Y-16401964D01*
X7446277Y-16421011D01*
X7446277Y-16440059D01*
X7436753Y-16468630D01*
X7322468Y-16582916D01*
X7446277Y-16582916D01*
X7684372Y-16582916D02*
X7684372Y-16382916D01*
X7770087Y-16582916D02*
X7770087Y-16478154D01*
X7760563Y-16459107D01*
X7741515Y-16449583D01*
X7712944Y-16449583D01*
X7693896Y-16459107D01*
X7684372Y-16468630D01*
X7893896Y-16582916D02*
X7874848Y-16573392D01*
X7865325Y-16563868D01*
X7855801Y-16544821D01*
X7855801Y-16487678D01*
X7865325Y-16468630D01*
X7874848Y-16459107D01*
X7893896Y-16449583D01*
X7922468Y-16449583D01*
X7941515Y-16459107D01*
X7951039Y-16468630D01*
X7960563Y-16487678D01*
X7960563Y-16544821D01*
X7951039Y-16563868D01*
X7941515Y-16573392D01*
X7922468Y-16582916D01*
X7893896Y-16582916D01*
X8074848Y-16582916D02*
X8055801Y-16573392D01*
X8046277Y-16554345D01*
X8046277Y-16382916D01*
X8227229Y-16573392D02*
X8208182Y-16582916D01*
X8170087Y-16582916D01*
X8151039Y-16573392D01*
X8141515Y-16554345D01*
X8141515Y-16478154D01*
X8151039Y-16459107D01*
X8170087Y-16449583D01*
X8208182Y-16449583D01*
X8227229Y-16459107D01*
X8236753Y-16478154D01*
X8236753Y-16497202D01*
X8141515Y-16516249D01*
X8312944Y-16573392D02*
X8331991Y-16582916D01*
X8370087Y-16582916D01*
X8389134Y-16573392D01*
X8398658Y-16554345D01*
X8398658Y-16544821D01*
X8389134Y-16525773D01*
X8370087Y-16516249D01*
X8341515Y-16516249D01*
X8322468Y-16506726D01*
X8312944Y-16487678D01*
X8312944Y-16478154D01*
X8322468Y-16459107D01*
X8341515Y-16449583D01*
X8370087Y-16449583D01*
X8389134Y-16459107D01*
X8465325Y-16659107D02*
X8474849Y-16649583D01*
X8493896Y-16621011D01*
X8503420Y-16601964D01*
X8512944Y-16573392D01*
X8522468Y-16525773D01*
X8522468Y-16487678D01*
X8512944Y-16440059D01*
X8503420Y-16411488D01*
X8493896Y-16392440D01*
X8474849Y-16363868D01*
X8465325Y-16354345D01*
D14*
X3643420Y-16706440D02*
X3643420Y-16806440D01*
X3593420Y-16756440D02*
X3693420Y-16756440D01*
D11*
X4055801Y-16846916D02*
X3941515Y-16846916D01*
X3998658Y-16846916D02*
X3998658Y-16646916D01*
X3979610Y-16675488D01*
X3960563Y-16694535D01*
X3941515Y-16704059D01*
X4141515Y-16827869D02*
X4151039Y-16837392D01*
X4141515Y-16846916D01*
X4131991Y-16837392D01*
X4141515Y-16827869D01*
X4141515Y-16846916D01*
X4274849Y-16646916D02*
X4293896Y-16646916D01*
X4312944Y-16656440D01*
X4322468Y-16665964D01*
X4331991Y-16685011D01*
X4341515Y-16723107D01*
X4341515Y-16770726D01*
X4331991Y-16808821D01*
X4322468Y-16827869D01*
X4312944Y-16837392D01*
X4293896Y-16846916D01*
X4274849Y-16846916D01*
X4255801Y-16837392D01*
X4246277Y-16827869D01*
X4236753Y-16808821D01*
X4227230Y-16770726D01*
X4227230Y-16723107D01*
X4236753Y-16685011D01*
X4246277Y-16665964D01*
X4255801Y-16656440D01*
X4274849Y-16646916D01*
X4465325Y-16646916D02*
X4484372Y-16646916D01*
X4503420Y-16656440D01*
X4512944Y-16665964D01*
X4522468Y-16685011D01*
X4531991Y-16723107D01*
X4531991Y-16770726D01*
X4522468Y-16808821D01*
X4512944Y-16827869D01*
X4503420Y-16837392D01*
X4484372Y-16846916D01*
X4465325Y-16846916D01*
X4446277Y-16837392D01*
X4436753Y-16827869D01*
X4427230Y-16808821D01*
X4417706Y-16770726D01*
X4417706Y-16723107D01*
X4427230Y-16685011D01*
X4436753Y-16665964D01*
X4446277Y-16656440D01*
X4465325Y-16646916D01*
X4655801Y-16646916D02*
X4674849Y-16646916D01*
X4693896Y-16656440D01*
X4703420Y-16665964D01*
X4712944Y-16685011D01*
X4722468Y-16723107D01*
X4722468Y-16770726D01*
X4712944Y-16808821D01*
X4703420Y-16827869D01*
X4693896Y-16837392D01*
X4674849Y-16846916D01*
X4655801Y-16846916D01*
X4636753Y-16837392D01*
X4627230Y-16827869D01*
X4617706Y-16808821D01*
X4608182Y-16770726D01*
X4608182Y-16723107D01*
X4617706Y-16685011D01*
X4627230Y-16665964D01*
X4636753Y-16656440D01*
X4655801Y-16646916D01*
X4808182Y-16846916D02*
X4808182Y-16713583D01*
X4808182Y-16732630D02*
X4817706Y-16723107D01*
X4836753Y-16713583D01*
X4865325Y-16713583D01*
X4884372Y-16723107D01*
X4893896Y-16742154D01*
X4893896Y-16846916D01*
X4893896Y-16742154D02*
X4903420Y-16723107D01*
X4922468Y-16713583D01*
X4951039Y-16713583D01*
X4970087Y-16723107D01*
X4979610Y-16742154D01*
X4979610Y-16846916D01*
X5074849Y-16846916D02*
X5074849Y-16713583D01*
X5074849Y-16732630D02*
X5084372Y-16723107D01*
X5103420Y-16713583D01*
X5131991Y-16713583D01*
X5151039Y-16723107D01*
X5160563Y-16742154D01*
X5160563Y-16846916D01*
X5160563Y-16742154D02*
X5170087Y-16723107D01*
X5189134Y-16713583D01*
X5217706Y-16713583D01*
X5236753Y-16723107D01*
X5246277Y-16742154D01*
X5246277Y-16846916D01*
X5636753Y-16637392D02*
X5465325Y-16894535D01*
X5893896Y-16646916D02*
X5912944Y-16646916D01*
X5931991Y-16656440D01*
X5941515Y-16665964D01*
X5951039Y-16685011D01*
X5960563Y-16723107D01*
X5960563Y-16770726D01*
X5951039Y-16808821D01*
X5941515Y-16827869D01*
X5931991Y-16837392D01*
X5912944Y-16846916D01*
X5893896Y-16846916D01*
X5874848Y-16837392D01*
X5865325Y-16827869D01*
X5855801Y-16808821D01*
X5846277Y-16770726D01*
X5846277Y-16723107D01*
X5855801Y-16685011D01*
X5865325Y-16665964D01*
X5874848Y-16656440D01*
X5893896Y-16646916D01*
X6046277Y-16827869D02*
X6055801Y-16837392D01*
X6046277Y-16846916D01*
X6036753Y-16837392D01*
X6046277Y-16827869D01*
X6046277Y-16846916D01*
X6179610Y-16646916D02*
X6198658Y-16646916D01*
X6217706Y-16656440D01*
X6227229Y-16665964D01*
X6236753Y-16685011D01*
X6246277Y-16723107D01*
X6246277Y-16770726D01*
X6236753Y-16808821D01*
X6227229Y-16827869D01*
X6217706Y-16837392D01*
X6198658Y-16846916D01*
X6179610Y-16846916D01*
X6160563Y-16837392D01*
X6151039Y-16827869D01*
X6141515Y-16808821D01*
X6131991Y-16770726D01*
X6131991Y-16723107D01*
X6141515Y-16685011D01*
X6151039Y-16665964D01*
X6160563Y-16656440D01*
X6179610Y-16646916D01*
X6312944Y-16646916D02*
X6436753Y-16646916D01*
X6370087Y-16723107D01*
X6398658Y-16723107D01*
X6417706Y-16732630D01*
X6427229Y-16742154D01*
X6436753Y-16761202D01*
X6436753Y-16808821D01*
X6427229Y-16827869D01*
X6417706Y-16837392D01*
X6398658Y-16846916D01*
X6341515Y-16846916D01*
X6322468Y-16837392D01*
X6312944Y-16827869D01*
X6531991Y-16846916D02*
X6570087Y-16846916D01*
X6589134Y-16837392D01*
X6598658Y-16827869D01*
X6617706Y-16799297D01*
X6627229Y-16761202D01*
X6627229Y-16685011D01*
X6617706Y-16665964D01*
X6608182Y-16656440D01*
X6589134Y-16646916D01*
X6551039Y-16646916D01*
X6531991Y-16656440D01*
X6522468Y-16665964D01*
X6512944Y-16685011D01*
X6512944Y-16732630D01*
X6522468Y-16751678D01*
X6531991Y-16761202D01*
X6551039Y-16770726D01*
X6589134Y-16770726D01*
X6608182Y-16761202D01*
X6617706Y-16751678D01*
X6627229Y-16732630D01*
X6798658Y-16713583D02*
X6798658Y-16846916D01*
X6751039Y-16637392D02*
X6703420Y-16780250D01*
X6827229Y-16780250D01*
X6893896Y-16646916D02*
X6893896Y-16685011D01*
X6970087Y-16646916D02*
X6970087Y-16685011D01*
X7265325Y-16923107D02*
X7255801Y-16913583D01*
X7236753Y-16885011D01*
X7227229Y-16865964D01*
X7217706Y-16837392D01*
X7208182Y-16789773D01*
X7208182Y-16751678D01*
X7217706Y-16704059D01*
X7227229Y-16675488D01*
X7236753Y-16656440D01*
X7255801Y-16627868D01*
X7265325Y-16618345D01*
X7331991Y-16665964D02*
X7341515Y-16656440D01*
X7360563Y-16646916D01*
X7408182Y-16646916D01*
X7427229Y-16656440D01*
X7436753Y-16665964D01*
X7446277Y-16685011D01*
X7446277Y-16704059D01*
X7436753Y-16732630D01*
X7322468Y-16846916D01*
X7446277Y-16846916D01*
X7636753Y-16846916D02*
X7522468Y-16846916D01*
X7579610Y-16846916D02*
X7579610Y-16646916D01*
X7560563Y-16675488D01*
X7541515Y-16694535D01*
X7522468Y-16704059D01*
X7874848Y-16846916D02*
X7874848Y-16646916D01*
X7960563Y-16846916D02*
X7960563Y-16742154D01*
X7951039Y-16723107D01*
X7931991Y-16713583D01*
X7903420Y-16713583D01*
X7884372Y-16723107D01*
X7874848Y-16732630D01*
X8084372Y-16846916D02*
X8065325Y-16837392D01*
X8055801Y-16827869D01*
X8046277Y-16808821D01*
X8046277Y-16751678D01*
X8055801Y-16732630D01*
X8065325Y-16723107D01*
X8084372Y-16713583D01*
X8112944Y-16713583D01*
X8131991Y-16723107D01*
X8141515Y-16732630D01*
X8151039Y-16751678D01*
X8151039Y-16808821D01*
X8141515Y-16827869D01*
X8131991Y-16837392D01*
X8112944Y-16846916D01*
X8084372Y-16846916D01*
X8265325Y-16846916D02*
X8246277Y-16837392D01*
X8236753Y-16818345D01*
X8236753Y-16646916D01*
X8417706Y-16837392D02*
X8398658Y-16846916D01*
X8360563Y-16846916D01*
X8341515Y-16837392D01*
X8331991Y-16818345D01*
X8331991Y-16742154D01*
X8341515Y-16723107D01*
X8360563Y-16713583D01*
X8398658Y-16713583D01*
X8417706Y-16723107D01*
X8427230Y-16742154D01*
X8427230Y-16761202D01*
X8331991Y-16780250D01*
X8503420Y-16837392D02*
X8522468Y-16846916D01*
X8560563Y-16846916D01*
X8579610Y-16837392D01*
X8589134Y-16818345D01*
X8589134Y-16808821D01*
X8579610Y-16789773D01*
X8560563Y-16780250D01*
X8531991Y-16780250D01*
X8512944Y-16770726D01*
X8503420Y-16751678D01*
X8503420Y-16742154D01*
X8512944Y-16723107D01*
X8531991Y-16713583D01*
X8560563Y-16713583D01*
X8579610Y-16723107D01*
X8655801Y-16923107D02*
X8665325Y-16913583D01*
X8684372Y-16885011D01*
X8693896Y-16865964D01*
X8703420Y-16837392D01*
X8712944Y-16789773D01*
X8712944Y-16751678D01*
X8703420Y-16704059D01*
X8693896Y-16675488D01*
X8684372Y-16656440D01*
X8665325Y-16627868D01*
X8655801Y-16618345D01*
D15*
X3678043Y-17057564D02*
X3678043Y-16983317D01*
X3603796Y-16983317D01*
X3603796Y-17057564D01*
X3678043Y-17057564D01*
D11*
X4055801Y-17110916D02*
X3941515Y-17110916D01*
X3998658Y-17110916D02*
X3998658Y-16910916D01*
X3979610Y-16939488D01*
X3960563Y-16958535D01*
X3941515Y-16968059D01*
X4141515Y-17091869D02*
X4151039Y-17101392D01*
X4141515Y-17110916D01*
X4131991Y-17101392D01*
X4141515Y-17091869D01*
X4141515Y-17110916D01*
X4274849Y-16910916D02*
X4293896Y-16910916D01*
X4312944Y-16920440D01*
X4322468Y-16929964D01*
X4331991Y-16949011D01*
X4341515Y-16987107D01*
X4341515Y-17034726D01*
X4331991Y-17072821D01*
X4322468Y-17091869D01*
X4312944Y-17101392D01*
X4293896Y-17110916D01*
X4274849Y-17110916D01*
X4255801Y-17101392D01*
X4246277Y-17091869D01*
X4236753Y-17072821D01*
X4227230Y-17034726D01*
X4227230Y-16987107D01*
X4236753Y-16949011D01*
X4246277Y-16929964D01*
X4255801Y-16920440D01*
X4274849Y-16910916D01*
X4522468Y-16910916D02*
X4427230Y-16910916D01*
X4417706Y-17006154D01*
X4427230Y-16996630D01*
X4446277Y-16987107D01*
X4493896Y-16987107D01*
X4512944Y-16996630D01*
X4522468Y-17006154D01*
X4531991Y-17025202D01*
X4531991Y-17072821D01*
X4522468Y-17091869D01*
X4512944Y-17101392D01*
X4493896Y-17110916D01*
X4446277Y-17110916D01*
X4427230Y-17101392D01*
X4417706Y-17091869D01*
X4655801Y-16910916D02*
X4674849Y-16910916D01*
X4693896Y-16920440D01*
X4703420Y-16929964D01*
X4712944Y-16949011D01*
X4722468Y-16987107D01*
X4722468Y-17034726D01*
X4712944Y-17072821D01*
X4703420Y-17091869D01*
X4693896Y-17101392D01*
X4674849Y-17110916D01*
X4655801Y-17110916D01*
X4636753Y-17101392D01*
X4627230Y-17091869D01*
X4617706Y-17072821D01*
X4608182Y-17034726D01*
X4608182Y-16987107D01*
X4617706Y-16949011D01*
X4627230Y-16929964D01*
X4636753Y-16920440D01*
X4655801Y-16910916D01*
X4808182Y-17110916D02*
X4808182Y-16977583D01*
X4808182Y-16996630D02*
X4817706Y-16987107D01*
X4836753Y-16977583D01*
X4865325Y-16977583D01*
X4884372Y-16987107D01*
X4893896Y-17006154D01*
X4893896Y-17110916D01*
X4893896Y-17006154D02*
X4903420Y-16987107D01*
X4922468Y-16977583D01*
X4951039Y-16977583D01*
X4970087Y-16987107D01*
X4979610Y-17006154D01*
X4979610Y-17110916D01*
X5074849Y-17110916D02*
X5074849Y-16977583D01*
X5074849Y-16996630D02*
X5084372Y-16987107D01*
X5103420Y-16977583D01*
X5131991Y-16977583D01*
X5151039Y-16987107D01*
X5160563Y-17006154D01*
X5160563Y-17110916D01*
X5160563Y-17006154D02*
X5170087Y-16987107D01*
X5189134Y-16977583D01*
X5217706Y-16977583D01*
X5236753Y-16987107D01*
X5246277Y-17006154D01*
X5246277Y-17110916D01*
X5636753Y-16901392D02*
X5465325Y-17158535D01*
X5893896Y-16910916D02*
X5912944Y-16910916D01*
X5931991Y-16920440D01*
X5941515Y-16929964D01*
X5951039Y-16949011D01*
X5960563Y-16987107D01*
X5960563Y-17034726D01*
X5951039Y-17072821D01*
X5941515Y-17091869D01*
X5931991Y-17101392D01*
X5912944Y-17110916D01*
X5893896Y-17110916D01*
X5874848Y-17101392D01*
X5865325Y-17091869D01*
X5855801Y-17072821D01*
X5846277Y-17034726D01*
X5846277Y-16987107D01*
X5855801Y-16949011D01*
X5865325Y-16929964D01*
X5874848Y-16920440D01*
X5893896Y-16910916D01*
X6046277Y-17091869D02*
X6055801Y-17101392D01*
X6046277Y-17110916D01*
X6036753Y-17101392D01*
X6046277Y-17091869D01*
X6046277Y-17110916D01*
X6179610Y-16910916D02*
X6198658Y-16910916D01*
X6217706Y-16920440D01*
X6227229Y-16929964D01*
X6236753Y-16949011D01*
X6246277Y-16987107D01*
X6246277Y-17034726D01*
X6236753Y-17072821D01*
X6227229Y-17091869D01*
X6217706Y-17101392D01*
X6198658Y-17110916D01*
X6179610Y-17110916D01*
X6160563Y-17101392D01*
X6151039Y-17091869D01*
X6141515Y-17072821D01*
X6131991Y-17034726D01*
X6131991Y-16987107D01*
X6141515Y-16949011D01*
X6151039Y-16929964D01*
X6160563Y-16920440D01*
X6179610Y-16910916D01*
X6417706Y-16977583D02*
X6417706Y-17110916D01*
X6370087Y-16901392D02*
X6322468Y-17044250D01*
X6446277Y-17044250D01*
X6627229Y-17110916D02*
X6512944Y-17110916D01*
X6570087Y-17110916D02*
X6570087Y-16910916D01*
X6551039Y-16939488D01*
X6531991Y-16958535D01*
X6512944Y-16968059D01*
X6693896Y-16910916D02*
X6817706Y-16910916D01*
X6751039Y-16987107D01*
X6779610Y-16987107D01*
X6798658Y-16996630D01*
X6808182Y-17006154D01*
X6817706Y-17025202D01*
X6817706Y-17072821D01*
X6808182Y-17091869D01*
X6798658Y-17101392D01*
X6779610Y-17110916D01*
X6722468Y-17110916D01*
X6703420Y-17101392D01*
X6693896Y-17091869D01*
X6893896Y-16910916D02*
X6893896Y-16949011D01*
X6970087Y-16910916D02*
X6970087Y-16949011D01*
X7265325Y-17187107D02*
X7255801Y-17177583D01*
X7236753Y-17149011D01*
X7227229Y-17129964D01*
X7217706Y-17101392D01*
X7208182Y-17053773D01*
X7208182Y-17015678D01*
X7217706Y-16968059D01*
X7227229Y-16939488D01*
X7236753Y-16920440D01*
X7255801Y-16891869D01*
X7265325Y-16882345D01*
X7322468Y-16910916D02*
X7455801Y-16910916D01*
X7370087Y-17110916D01*
X7617706Y-16910916D02*
X7579610Y-16910916D01*
X7560563Y-16920440D01*
X7551039Y-16929964D01*
X7531991Y-16958535D01*
X7522468Y-16996630D01*
X7522468Y-17072821D01*
X7531991Y-17091869D01*
X7541515Y-17101392D01*
X7560563Y-17110916D01*
X7598658Y-17110916D01*
X7617706Y-17101392D01*
X7627229Y-17091869D01*
X7636753Y-17072821D01*
X7636753Y-17025202D01*
X7627229Y-17006154D01*
X7617706Y-16996630D01*
X7598658Y-16987107D01*
X7560563Y-16987107D01*
X7541515Y-16996630D01*
X7531991Y-17006154D01*
X7522468Y-17025202D01*
X7874848Y-17110916D02*
X7874848Y-16910916D01*
X7960563Y-17110916D02*
X7960563Y-17006154D01*
X7951039Y-16987107D01*
X7931991Y-16977583D01*
X7903420Y-16977583D01*
X7884372Y-16987107D01*
X7874848Y-16996630D01*
X8084372Y-17110916D02*
X8065325Y-17101392D01*
X8055801Y-17091869D01*
X8046277Y-17072821D01*
X8046277Y-17015678D01*
X8055801Y-16996630D01*
X8065325Y-16987107D01*
X8084372Y-16977583D01*
X8112944Y-16977583D01*
X8131991Y-16987107D01*
X8141515Y-16996630D01*
X8151039Y-17015678D01*
X8151039Y-17072821D01*
X8141515Y-17091869D01*
X8131991Y-17101392D01*
X8112944Y-17110916D01*
X8084372Y-17110916D01*
X8265325Y-17110916D02*
X8246277Y-17101392D01*
X8236753Y-17082345D01*
X8236753Y-16910916D01*
X8417706Y-17101392D02*
X8398658Y-17110916D01*
X8360563Y-17110916D01*
X8341515Y-17101392D01*
X8331991Y-17082345D01*
X8331991Y-17006154D01*
X8341515Y-16987107D01*
X8360563Y-16977583D01*
X8398658Y-16977583D01*
X8417706Y-16987107D01*
X8427230Y-17006154D01*
X8427230Y-17025202D01*
X8331991Y-17044250D01*
X8503420Y-17101392D02*
X8522468Y-17110916D01*
X8560563Y-17110916D01*
X8579610Y-17101392D01*
X8589134Y-17082345D01*
X8589134Y-17072821D01*
X8579610Y-17053773D01*
X8560563Y-17044250D01*
X8531991Y-17044250D01*
X8512944Y-17034726D01*
X8503420Y-17015678D01*
X8503420Y-17006154D01*
X8512944Y-16987107D01*
X8531991Y-16977583D01*
X8560563Y-16977583D01*
X8579610Y-16987107D01*
X8655801Y-17187107D02*
X8665325Y-17177583D01*
X8684372Y-17149011D01*
X8693896Y-17129964D01*
X8703420Y-17101392D01*
X8712944Y-17053773D01*
X8712944Y-17015678D01*
X8703420Y-16968059D01*
X8693896Y-16939488D01*
X8684372Y-16920440D01*
X8665325Y-16891869D01*
X8655801Y-16882345D01*
D16*
X3638420Y-17339440D02*
X3693420Y-17284440D01*
X3638420Y-17229440D01*
X3583420Y-17284440D01*
X3638420Y-17339440D01*
D11*
X4055801Y-17374916D02*
X3941515Y-17374916D01*
X3998658Y-17374916D02*
X3998658Y-17174916D01*
X3979610Y-17203488D01*
X3960563Y-17222535D01*
X3941515Y-17232059D01*
X4141515Y-17355869D02*
X4151039Y-17365392D01*
X4141515Y-17374916D01*
X4131991Y-17365392D01*
X4141515Y-17355869D01*
X4141515Y-17374916D01*
X4341515Y-17374916D02*
X4227230Y-17374916D01*
X4284372Y-17374916D02*
X4284372Y-17174916D01*
X4265325Y-17203488D01*
X4246277Y-17222535D01*
X4227230Y-17232059D01*
X4465325Y-17174916D02*
X4484372Y-17174916D01*
X4503420Y-17184440D01*
X4512944Y-17193964D01*
X4522468Y-17213011D01*
X4531991Y-17251107D01*
X4531991Y-17298726D01*
X4522468Y-17336821D01*
X4512944Y-17355869D01*
X4503420Y-17365392D01*
X4484372Y-17374916D01*
X4465325Y-17374916D01*
X4446277Y-17365392D01*
X4436753Y-17355869D01*
X4427230Y-17336821D01*
X4417706Y-17298726D01*
X4417706Y-17251107D01*
X4427230Y-17213011D01*
X4436753Y-17193964D01*
X4446277Y-17184440D01*
X4465325Y-17174916D01*
X4655801Y-17174916D02*
X4674849Y-17174916D01*
X4693896Y-17184440D01*
X4703420Y-17193964D01*
X4712944Y-17213011D01*
X4722468Y-17251107D01*
X4722468Y-17298726D01*
X4712944Y-17336821D01*
X4703420Y-17355869D01*
X4693896Y-17365392D01*
X4674849Y-17374916D01*
X4655801Y-17374916D01*
X4636753Y-17365392D01*
X4627230Y-17355869D01*
X4617706Y-17336821D01*
X4608182Y-17298726D01*
X4608182Y-17251107D01*
X4617706Y-17213011D01*
X4627230Y-17193964D01*
X4636753Y-17184440D01*
X4655801Y-17174916D01*
X4808182Y-17374916D02*
X4808182Y-17241583D01*
X4808182Y-17260630D02*
X4817706Y-17251107D01*
X4836753Y-17241583D01*
X4865325Y-17241583D01*
X4884372Y-17251107D01*
X4893896Y-17270154D01*
X4893896Y-17374916D01*
X4893896Y-17270154D02*
X4903420Y-17251107D01*
X4922468Y-17241583D01*
X4951039Y-17241583D01*
X4970087Y-17251107D01*
X4979610Y-17270154D01*
X4979610Y-17374916D01*
X5074849Y-17374916D02*
X5074849Y-17241583D01*
X5074849Y-17260630D02*
X5084372Y-17251107D01*
X5103420Y-17241583D01*
X5131991Y-17241583D01*
X5151039Y-17251107D01*
X5160563Y-17270154D01*
X5160563Y-17374916D01*
X5160563Y-17270154D02*
X5170087Y-17251107D01*
X5189134Y-17241583D01*
X5217706Y-17241583D01*
X5236753Y-17251107D01*
X5246277Y-17270154D01*
X5246277Y-17374916D01*
X5636753Y-17165392D02*
X5465325Y-17422535D01*
X5893896Y-17174916D02*
X5912944Y-17174916D01*
X5931991Y-17184440D01*
X5941515Y-17193964D01*
X5951039Y-17213011D01*
X5960563Y-17251107D01*
X5960563Y-17298726D01*
X5951039Y-17336821D01*
X5941515Y-17355869D01*
X5931991Y-17365392D01*
X5912944Y-17374916D01*
X5893896Y-17374916D01*
X5874848Y-17365392D01*
X5865325Y-17355869D01*
X5855801Y-17336821D01*
X5846277Y-17298726D01*
X5846277Y-17251107D01*
X5855801Y-17213011D01*
X5865325Y-17193964D01*
X5874848Y-17184440D01*
X5893896Y-17174916D01*
X6046277Y-17355869D02*
X6055801Y-17365392D01*
X6046277Y-17374916D01*
X6036753Y-17365392D01*
X6046277Y-17355869D01*
X6046277Y-17374916D01*
X6179610Y-17174916D02*
X6198658Y-17174916D01*
X6217706Y-17184440D01*
X6227229Y-17193964D01*
X6236753Y-17213011D01*
X6246277Y-17251107D01*
X6246277Y-17298726D01*
X6236753Y-17336821D01*
X6227229Y-17355869D01*
X6217706Y-17365392D01*
X6198658Y-17374916D01*
X6179610Y-17374916D01*
X6160563Y-17365392D01*
X6151039Y-17355869D01*
X6141515Y-17336821D01*
X6131991Y-17298726D01*
X6131991Y-17251107D01*
X6141515Y-17213011D01*
X6151039Y-17193964D01*
X6160563Y-17184440D01*
X6179610Y-17174916D01*
X6417706Y-17241583D02*
X6417706Y-17374916D01*
X6370087Y-17165392D02*
X6322468Y-17308250D01*
X6446277Y-17308250D01*
X6503420Y-17174916D02*
X6627229Y-17174916D01*
X6560563Y-17251107D01*
X6589134Y-17251107D01*
X6608182Y-17260630D01*
X6617706Y-17270154D01*
X6627229Y-17289202D01*
X6627229Y-17336821D01*
X6617706Y-17355869D01*
X6608182Y-17365392D01*
X6589134Y-17374916D01*
X6531991Y-17374916D01*
X6512944Y-17365392D01*
X6503420Y-17355869D01*
X6693896Y-17174916D02*
X6817706Y-17174916D01*
X6751039Y-17251107D01*
X6779610Y-17251107D01*
X6798658Y-17260630D01*
X6808182Y-17270154D01*
X6817706Y-17289202D01*
X6817706Y-17336821D01*
X6808182Y-17355869D01*
X6798658Y-17365392D01*
X6779610Y-17374916D01*
X6722468Y-17374916D01*
X6703420Y-17365392D01*
X6693896Y-17355869D01*
X6893896Y-17174916D02*
X6893896Y-17213011D01*
X6970087Y-17174916D02*
X6970087Y-17213011D01*
X7265325Y-17451107D02*
X7255801Y-17441583D01*
X7236753Y-17413011D01*
X7227229Y-17393964D01*
X7217706Y-17365392D01*
X7208182Y-17317773D01*
X7208182Y-17279678D01*
X7217706Y-17232059D01*
X7227229Y-17203488D01*
X7236753Y-17184440D01*
X7255801Y-17155869D01*
X7265325Y-17146345D01*
X7322468Y-17174916D02*
X7446277Y-17174916D01*
X7379610Y-17251107D01*
X7408182Y-17251107D01*
X7427229Y-17260630D01*
X7436753Y-17270154D01*
X7446277Y-17289202D01*
X7446277Y-17336821D01*
X7436753Y-17355869D01*
X7427229Y-17365392D01*
X7408182Y-17374916D01*
X7351039Y-17374916D01*
X7331991Y-17365392D01*
X7322468Y-17355869D01*
X7684372Y-17374916D02*
X7684372Y-17174916D01*
X7770087Y-17374916D02*
X7770087Y-17270154D01*
X7760563Y-17251107D01*
X7741515Y-17241583D01*
X7712944Y-17241583D01*
X7693896Y-17251107D01*
X7684372Y-17260630D01*
X7893896Y-17374916D02*
X7874848Y-17365392D01*
X7865325Y-17355869D01*
X7855801Y-17336821D01*
X7855801Y-17279678D01*
X7865325Y-17260630D01*
X7874848Y-17251107D01*
X7893896Y-17241583D01*
X7922468Y-17241583D01*
X7941515Y-17251107D01*
X7951039Y-17260630D01*
X7960563Y-17279678D01*
X7960563Y-17336821D01*
X7951039Y-17355869D01*
X7941515Y-17365392D01*
X7922468Y-17374916D01*
X7893896Y-17374916D01*
X8074848Y-17374916D02*
X8055801Y-17365392D01*
X8046277Y-17346345D01*
X8046277Y-17174916D01*
X8227229Y-17365392D02*
X8208182Y-17374916D01*
X8170087Y-17374916D01*
X8151039Y-17365392D01*
X8141515Y-17346345D01*
X8141515Y-17270154D01*
X8151039Y-17251107D01*
X8170087Y-17241583D01*
X8208182Y-17241583D01*
X8227229Y-17251107D01*
X8236753Y-17270154D01*
X8236753Y-17289202D01*
X8141515Y-17308250D01*
X8312944Y-17365392D02*
X8331991Y-17374916D01*
X8370087Y-17374916D01*
X8389134Y-17365392D01*
X8398658Y-17346345D01*
X8398658Y-17336821D01*
X8389134Y-17317773D01*
X8370087Y-17308250D01*
X8341515Y-17308250D01*
X8322468Y-17298726D01*
X8312944Y-17279678D01*
X8312944Y-17270154D01*
X8322468Y-17251107D01*
X8341515Y-17241583D01*
X8370087Y-17241583D01*
X8389134Y-17251107D01*
X8465325Y-17451107D02*
X8474849Y-17441583D01*
X8493896Y-17413011D01*
X8503420Y-17393964D01*
X8512944Y-17365392D01*
X8522468Y-17317773D01*
X8522468Y-17279678D01*
X8512944Y-17232059D01*
X8503420Y-17203488D01*
X8493896Y-17184440D01*
X8474849Y-17155869D01*
X8465325Y-17146345D01*
D17*
X3563420Y-17483440D02*
X3693420Y-17613440D01*
X3693420Y-17483440D02*
X3563420Y-17613440D01*
X3693420Y-17548440D02*
G75*
G03*
X3693420Y-17548440I-65000J0D01*
G01*
D11*
X4055801Y-17638916D02*
X3941515Y-17638916D01*
X3998658Y-17638916D02*
X3998658Y-17438916D01*
X3979610Y-17467488D01*
X3960563Y-17486535D01*
X3941515Y-17496059D01*
X4141515Y-17619869D02*
X4151039Y-17629392D01*
X4141515Y-17638916D01*
X4131991Y-17629392D01*
X4141515Y-17619869D01*
X4141515Y-17638916D01*
X4217706Y-17438916D02*
X4341515Y-17438916D01*
X4274849Y-17515107D01*
X4303420Y-17515107D01*
X4322468Y-17524630D01*
X4331991Y-17534154D01*
X4341515Y-17553202D01*
X4341515Y-17600821D01*
X4331991Y-17619869D01*
X4322468Y-17629392D01*
X4303420Y-17638916D01*
X4246277Y-17638916D01*
X4227230Y-17629392D01*
X4217706Y-17619869D01*
X4465325Y-17438916D02*
X4484372Y-17438916D01*
X4503420Y-17448440D01*
X4512944Y-17457964D01*
X4522468Y-17477011D01*
X4531991Y-17515107D01*
X4531991Y-17562726D01*
X4522468Y-17600821D01*
X4512944Y-17619869D01*
X4503420Y-17629392D01*
X4484372Y-17638916D01*
X4465325Y-17638916D01*
X4446277Y-17629392D01*
X4436753Y-17619869D01*
X4427230Y-17600821D01*
X4417706Y-17562726D01*
X4417706Y-17515107D01*
X4427230Y-17477011D01*
X4436753Y-17457964D01*
X4446277Y-17448440D01*
X4465325Y-17438916D01*
X4655801Y-17438916D02*
X4674849Y-17438916D01*
X4693896Y-17448440D01*
X4703420Y-17457964D01*
X4712944Y-17477011D01*
X4722468Y-17515107D01*
X4722468Y-17562726D01*
X4712944Y-17600821D01*
X4703420Y-17619869D01*
X4693896Y-17629392D01*
X4674849Y-17638916D01*
X4655801Y-17638916D01*
X4636753Y-17629392D01*
X4627230Y-17619869D01*
X4617706Y-17600821D01*
X4608182Y-17562726D01*
X4608182Y-17515107D01*
X4617706Y-17477011D01*
X4627230Y-17457964D01*
X4636753Y-17448440D01*
X4655801Y-17438916D01*
X4808182Y-17638916D02*
X4808182Y-17505583D01*
X4808182Y-17524630D02*
X4817706Y-17515107D01*
X4836753Y-17505583D01*
X4865325Y-17505583D01*
X4884372Y-17515107D01*
X4893896Y-17534154D01*
X4893896Y-17638916D01*
X4893896Y-17534154D02*
X4903420Y-17515107D01*
X4922468Y-17505583D01*
X4951039Y-17505583D01*
X4970087Y-17515107D01*
X4979610Y-17534154D01*
X4979610Y-17638916D01*
X5074849Y-17638916D02*
X5074849Y-17505583D01*
X5074849Y-17524630D02*
X5084372Y-17515107D01*
X5103420Y-17505583D01*
X5131991Y-17505583D01*
X5151039Y-17515107D01*
X5160563Y-17534154D01*
X5160563Y-17638916D01*
X5160563Y-17534154D02*
X5170087Y-17515107D01*
X5189134Y-17505583D01*
X5217706Y-17505583D01*
X5236753Y-17515107D01*
X5246277Y-17534154D01*
X5246277Y-17638916D01*
X5636753Y-17429392D02*
X5465325Y-17686535D01*
X5893896Y-17438916D02*
X5912944Y-17438916D01*
X5931991Y-17448440D01*
X5941515Y-17457964D01*
X5951039Y-17477011D01*
X5960563Y-17515107D01*
X5960563Y-17562726D01*
X5951039Y-17600821D01*
X5941515Y-17619869D01*
X5931991Y-17629392D01*
X5912944Y-17638916D01*
X5893896Y-17638916D01*
X5874848Y-17629392D01*
X5865325Y-17619869D01*
X5855801Y-17600821D01*
X5846277Y-17562726D01*
X5846277Y-17515107D01*
X5855801Y-17477011D01*
X5865325Y-17457964D01*
X5874848Y-17448440D01*
X5893896Y-17438916D01*
X6046277Y-17619869D02*
X6055801Y-17629392D01*
X6046277Y-17638916D01*
X6036753Y-17629392D01*
X6046277Y-17619869D01*
X6046277Y-17638916D01*
X6179610Y-17438916D02*
X6198658Y-17438916D01*
X6217706Y-17448440D01*
X6227229Y-17457964D01*
X6236753Y-17477011D01*
X6246277Y-17515107D01*
X6246277Y-17562726D01*
X6236753Y-17600821D01*
X6227229Y-17619869D01*
X6217706Y-17629392D01*
X6198658Y-17638916D01*
X6179610Y-17638916D01*
X6160563Y-17629392D01*
X6151039Y-17619869D01*
X6141515Y-17600821D01*
X6131991Y-17562726D01*
X6131991Y-17515107D01*
X6141515Y-17477011D01*
X6151039Y-17457964D01*
X6160563Y-17448440D01*
X6179610Y-17438916D01*
X6427229Y-17438916D02*
X6331991Y-17438916D01*
X6322468Y-17534154D01*
X6331991Y-17524630D01*
X6351039Y-17515107D01*
X6398658Y-17515107D01*
X6417706Y-17524630D01*
X6427229Y-17534154D01*
X6436753Y-17553202D01*
X6436753Y-17600821D01*
X6427229Y-17619869D01*
X6417706Y-17629392D01*
X6398658Y-17638916D01*
X6351039Y-17638916D01*
X6331991Y-17629392D01*
X6322468Y-17619869D01*
X6627229Y-17638916D02*
X6512944Y-17638916D01*
X6570087Y-17638916D02*
X6570087Y-17438916D01*
X6551039Y-17467488D01*
X6531991Y-17486535D01*
X6512944Y-17496059D01*
X6703420Y-17457964D02*
X6712944Y-17448440D01*
X6731991Y-17438916D01*
X6779610Y-17438916D01*
X6798658Y-17448440D01*
X6808182Y-17457964D01*
X6817706Y-17477011D01*
X6817706Y-17496059D01*
X6808182Y-17524630D01*
X6693896Y-17638916D01*
X6817706Y-17638916D01*
X6893896Y-17438916D02*
X6893896Y-17477011D01*
X6970087Y-17438916D02*
X6970087Y-17477011D01*
X7265325Y-17715107D02*
X7255801Y-17705583D01*
X7236753Y-17677011D01*
X7227229Y-17657964D01*
X7217706Y-17629392D01*
X7208182Y-17581773D01*
X7208182Y-17543678D01*
X7217706Y-17496059D01*
X7227229Y-17467488D01*
X7236753Y-17448440D01*
X7255801Y-17419869D01*
X7265325Y-17410345D01*
X7331991Y-17457964D02*
X7341515Y-17448440D01*
X7360563Y-17438916D01*
X7408182Y-17438916D01*
X7427229Y-17448440D01*
X7436753Y-17457964D01*
X7446277Y-17477011D01*
X7446277Y-17496059D01*
X7436753Y-17524630D01*
X7322468Y-17638916D01*
X7446277Y-17638916D01*
X7684372Y-17638916D02*
X7684372Y-17438916D01*
X7770087Y-17638916D02*
X7770087Y-17534154D01*
X7760563Y-17515107D01*
X7741515Y-17505583D01*
X7712944Y-17505583D01*
X7693896Y-17515107D01*
X7684372Y-17524630D01*
X7893896Y-17638916D02*
X7874848Y-17629392D01*
X7865325Y-17619869D01*
X7855801Y-17600821D01*
X7855801Y-17543678D01*
X7865325Y-17524630D01*
X7874848Y-17515107D01*
X7893896Y-17505583D01*
X7922468Y-17505583D01*
X7941515Y-17515107D01*
X7951039Y-17524630D01*
X7960563Y-17543678D01*
X7960563Y-17600821D01*
X7951039Y-17619869D01*
X7941515Y-17629392D01*
X7922468Y-17638916D01*
X7893896Y-17638916D01*
X8074848Y-17638916D02*
X8055801Y-17629392D01*
X8046277Y-17610345D01*
X8046277Y-17438916D01*
X8227229Y-17629392D02*
X8208182Y-17638916D01*
X8170087Y-17638916D01*
X8151039Y-17629392D01*
X8141515Y-17610345D01*
X8141515Y-17534154D01*
X8151039Y-17515107D01*
X8170087Y-17505583D01*
X8208182Y-17505583D01*
X8227229Y-17515107D01*
X8236753Y-17534154D01*
X8236753Y-17553202D01*
X8141515Y-17572250D01*
X8312944Y-17629392D02*
X8331991Y-17638916D01*
X8370087Y-17638916D01*
X8389134Y-17629392D01*
X8398658Y-17610345D01*
X8398658Y-17600821D01*
X8389134Y-17581773D01*
X8370087Y-17572250D01*
X8341515Y-17572250D01*
X8322468Y-17562726D01*
X8312944Y-17543678D01*
X8312944Y-17534154D01*
X8322468Y-17515107D01*
X8341515Y-17505583D01*
X8370087Y-17505583D01*
X8389134Y-17515107D01*
X8465325Y-17715107D02*
X8474849Y-17705583D01*
X8493896Y-17677011D01*
X8503420Y-17657964D01*
X8512944Y-17629392D01*
X8522468Y-17581773D01*
X8522468Y-17543678D01*
X8512944Y-17496059D01*
X8503420Y-17467488D01*
X8493896Y-17448440D01*
X8474849Y-17419869D01*
X8465325Y-17410345D01*
D18*
X3533420Y-17732440D02*
X3693420Y-17892440D01*
X3693420Y-17732440D02*
X3533420Y-17892440D01*
X3613420Y-17732440D02*
X3613420Y-17892440D01*
X3533420Y-17812440D02*
X3693420Y-17812440D01*
D11*
X4055801Y-17902916D02*
X3941515Y-17902916D01*
X3998658Y-17902916D02*
X3998658Y-17702916D01*
X3979610Y-17731488D01*
X3960563Y-17750535D01*
X3941515Y-17760059D01*
X4141515Y-17883869D02*
X4151039Y-17893392D01*
X4141515Y-17902916D01*
X4131991Y-17893392D01*
X4141515Y-17883869D01*
X4141515Y-17902916D01*
X4322468Y-17702916D02*
X4284372Y-17702916D01*
X4265325Y-17712440D01*
X4255801Y-17721964D01*
X4236753Y-17750535D01*
X4227230Y-17788630D01*
X4227230Y-17864821D01*
X4236753Y-17883869D01*
X4246277Y-17893392D01*
X4265325Y-17902916D01*
X4303420Y-17902916D01*
X4322468Y-17893392D01*
X4331991Y-17883869D01*
X4341515Y-17864821D01*
X4341515Y-17817202D01*
X4331991Y-17798154D01*
X4322468Y-17788630D01*
X4303420Y-17779107D01*
X4265325Y-17779107D01*
X4246277Y-17788630D01*
X4236753Y-17798154D01*
X4227230Y-17817202D01*
X4465325Y-17702916D02*
X4484372Y-17702916D01*
X4503420Y-17712440D01*
X4512944Y-17721964D01*
X4522468Y-17741011D01*
X4531991Y-17779107D01*
X4531991Y-17826726D01*
X4522468Y-17864821D01*
X4512944Y-17883869D01*
X4503420Y-17893392D01*
X4484372Y-17902916D01*
X4465325Y-17902916D01*
X4446277Y-17893392D01*
X4436753Y-17883869D01*
X4427230Y-17864821D01*
X4417706Y-17826726D01*
X4417706Y-17779107D01*
X4427230Y-17741011D01*
X4436753Y-17721964D01*
X4446277Y-17712440D01*
X4465325Y-17702916D01*
X4655801Y-17702916D02*
X4674849Y-17702916D01*
X4693896Y-17712440D01*
X4703420Y-17721964D01*
X4712944Y-17741011D01*
X4722468Y-17779107D01*
X4722468Y-17826726D01*
X4712944Y-17864821D01*
X4703420Y-17883869D01*
X4693896Y-17893392D01*
X4674849Y-17902916D01*
X4655801Y-17902916D01*
X4636753Y-17893392D01*
X4627230Y-17883869D01*
X4617706Y-17864821D01*
X4608182Y-17826726D01*
X4608182Y-17779107D01*
X4617706Y-17741011D01*
X4627230Y-17721964D01*
X4636753Y-17712440D01*
X4655801Y-17702916D01*
X4808182Y-17902916D02*
X4808182Y-17769583D01*
X4808182Y-17788630D02*
X4817706Y-17779107D01*
X4836753Y-17769583D01*
X4865325Y-17769583D01*
X4884372Y-17779107D01*
X4893896Y-17798154D01*
X4893896Y-17902916D01*
X4893896Y-17798154D02*
X4903420Y-17779107D01*
X4922468Y-17769583D01*
X4951039Y-17769583D01*
X4970087Y-17779107D01*
X4979610Y-17798154D01*
X4979610Y-17902916D01*
X5074849Y-17902916D02*
X5074849Y-17769583D01*
X5074849Y-17788630D02*
X5084372Y-17779107D01*
X5103420Y-17769583D01*
X5131991Y-17769583D01*
X5151039Y-17779107D01*
X5160563Y-17798154D01*
X5160563Y-17902916D01*
X5160563Y-17798154D02*
X5170087Y-17779107D01*
X5189134Y-17769583D01*
X5217706Y-17769583D01*
X5236753Y-17779107D01*
X5246277Y-17798154D01*
X5246277Y-17902916D01*
X5636753Y-17693392D02*
X5465325Y-17950535D01*
X5893896Y-17702916D02*
X5912944Y-17702916D01*
X5931991Y-17712440D01*
X5941515Y-17721964D01*
X5951039Y-17741011D01*
X5960563Y-17779107D01*
X5960563Y-17826726D01*
X5951039Y-17864821D01*
X5941515Y-17883869D01*
X5931991Y-17893392D01*
X5912944Y-17902916D01*
X5893896Y-17902916D01*
X5874848Y-17893392D01*
X5865325Y-17883869D01*
X5855801Y-17864821D01*
X5846277Y-17826726D01*
X5846277Y-17779107D01*
X5855801Y-17741011D01*
X5865325Y-17721964D01*
X5874848Y-17712440D01*
X5893896Y-17702916D01*
X6046277Y-17883869D02*
X6055801Y-17893392D01*
X6046277Y-17902916D01*
X6036753Y-17893392D01*
X6046277Y-17883869D01*
X6046277Y-17902916D01*
X6179610Y-17702916D02*
X6198658Y-17702916D01*
X6217706Y-17712440D01*
X6227229Y-17721964D01*
X6236753Y-17741011D01*
X6246277Y-17779107D01*
X6246277Y-17826726D01*
X6236753Y-17864821D01*
X6227229Y-17883869D01*
X6217706Y-17893392D01*
X6198658Y-17902916D01*
X6179610Y-17902916D01*
X6160563Y-17893392D01*
X6151039Y-17883869D01*
X6141515Y-17864821D01*
X6131991Y-17826726D01*
X6131991Y-17779107D01*
X6141515Y-17741011D01*
X6151039Y-17721964D01*
X6160563Y-17712440D01*
X6179610Y-17702916D01*
X6417706Y-17702916D02*
X6379610Y-17702916D01*
X6360563Y-17712440D01*
X6351039Y-17721964D01*
X6331991Y-17750535D01*
X6322468Y-17788630D01*
X6322468Y-17864821D01*
X6331991Y-17883869D01*
X6341515Y-17893392D01*
X6360563Y-17902916D01*
X6398658Y-17902916D01*
X6417706Y-17893392D01*
X6427229Y-17883869D01*
X6436753Y-17864821D01*
X6436753Y-17817202D01*
X6427229Y-17798154D01*
X6417706Y-17788630D01*
X6398658Y-17779107D01*
X6360563Y-17779107D01*
X6341515Y-17788630D01*
X6331991Y-17798154D01*
X6322468Y-17817202D01*
X6503420Y-17702916D02*
X6627229Y-17702916D01*
X6560563Y-17779107D01*
X6589134Y-17779107D01*
X6608182Y-17788630D01*
X6617706Y-17798154D01*
X6627229Y-17817202D01*
X6627229Y-17864821D01*
X6617706Y-17883869D01*
X6608182Y-17893392D01*
X6589134Y-17902916D01*
X6531991Y-17902916D01*
X6512944Y-17893392D01*
X6503420Y-17883869D01*
X6751039Y-17702916D02*
X6770087Y-17702916D01*
X6789134Y-17712440D01*
X6798658Y-17721964D01*
X6808182Y-17741011D01*
X6817706Y-17779107D01*
X6817706Y-17826726D01*
X6808182Y-17864821D01*
X6798658Y-17883869D01*
X6789134Y-17893392D01*
X6770087Y-17902916D01*
X6751039Y-17902916D01*
X6731991Y-17893392D01*
X6722468Y-17883869D01*
X6712944Y-17864821D01*
X6703420Y-17826726D01*
X6703420Y-17779107D01*
X6712944Y-17741011D01*
X6722468Y-17721964D01*
X6731991Y-17712440D01*
X6751039Y-17702916D01*
X6893896Y-17702916D02*
X6893896Y-17741011D01*
X6970087Y-17702916D02*
X6970087Y-17741011D01*
X7265325Y-17979107D02*
X7255801Y-17969583D01*
X7236753Y-17941011D01*
X7227229Y-17921964D01*
X7217706Y-17893392D01*
X7208182Y-17845773D01*
X7208182Y-17807678D01*
X7217706Y-17760059D01*
X7227229Y-17731488D01*
X7236753Y-17712440D01*
X7255801Y-17683869D01*
X7265325Y-17674345D01*
X7322468Y-17702916D02*
X7446277Y-17702916D01*
X7379610Y-17779107D01*
X7408182Y-17779107D01*
X7427229Y-17788630D01*
X7436753Y-17798154D01*
X7446277Y-17817202D01*
X7446277Y-17864821D01*
X7436753Y-17883869D01*
X7427229Y-17893392D01*
X7408182Y-17902916D01*
X7351039Y-17902916D01*
X7331991Y-17893392D01*
X7322468Y-17883869D01*
X7617706Y-17702916D02*
X7579610Y-17702916D01*
X7560563Y-17712440D01*
X7551039Y-17721964D01*
X7531991Y-17750535D01*
X7522468Y-17788630D01*
X7522468Y-17864821D01*
X7531991Y-17883869D01*
X7541515Y-17893392D01*
X7560563Y-17902916D01*
X7598658Y-17902916D01*
X7617706Y-17893392D01*
X7627229Y-17883869D01*
X7636753Y-17864821D01*
X7636753Y-17817202D01*
X7627229Y-17798154D01*
X7617706Y-17788630D01*
X7598658Y-17779107D01*
X7560563Y-17779107D01*
X7541515Y-17788630D01*
X7531991Y-17798154D01*
X7522468Y-17817202D01*
X7874848Y-17902916D02*
X7874848Y-17702916D01*
X7960563Y-17902916D02*
X7960563Y-17798154D01*
X7951039Y-17779107D01*
X7931991Y-17769583D01*
X7903420Y-17769583D01*
X7884372Y-17779107D01*
X7874848Y-17788630D01*
X8084372Y-17902916D02*
X8065325Y-17893392D01*
X8055801Y-17883869D01*
X8046277Y-17864821D01*
X8046277Y-17807678D01*
X8055801Y-17788630D01*
X8065325Y-17779107D01*
X8084372Y-17769583D01*
X8112944Y-17769583D01*
X8131991Y-17779107D01*
X8141515Y-17788630D01*
X8151039Y-17807678D01*
X8151039Y-17864821D01*
X8141515Y-17883869D01*
X8131991Y-17893392D01*
X8112944Y-17902916D01*
X8084372Y-17902916D01*
X8265325Y-17902916D02*
X8246277Y-17893392D01*
X8236753Y-17874345D01*
X8236753Y-17702916D01*
X8417706Y-17893392D02*
X8398658Y-17902916D01*
X8360563Y-17902916D01*
X8341515Y-17893392D01*
X8331991Y-17874345D01*
X8331991Y-17798154D01*
X8341515Y-17779107D01*
X8360563Y-17769583D01*
X8398658Y-17769583D01*
X8417706Y-17779107D01*
X8427230Y-17798154D01*
X8427230Y-17817202D01*
X8331991Y-17836250D01*
X8503420Y-17893392D02*
X8522468Y-17902916D01*
X8560563Y-17902916D01*
X8579610Y-17893392D01*
X8589134Y-17874345D01*
X8589134Y-17864821D01*
X8579610Y-17845773D01*
X8560563Y-17836250D01*
X8531991Y-17836250D01*
X8512944Y-17826726D01*
X8503420Y-17807678D01*
X8503420Y-17798154D01*
X8512944Y-17779107D01*
X8531991Y-17769583D01*
X8560563Y-17769583D01*
X8579610Y-17779107D01*
X8655801Y-17979107D02*
X8665325Y-17969583D01*
X8684372Y-17941011D01*
X8693896Y-17921964D01*
X8703420Y-17893392D01*
X8712944Y-17845773D01*
X8712944Y-17807678D01*
X8703420Y-17760059D01*
X8693896Y-17731488D01*
X8684372Y-17712440D01*
X8665325Y-17683869D01*
X8655801Y-17674345D01*
X3493420Y-17992440D02*
X3693420Y-18192440D01*
X3693420Y-17992440D02*
X3493420Y-18192440D01*
X3664131Y-18163151D02*
X3664131Y-18021729D01*
X3522709Y-18021729D01*
X3522709Y-18163151D01*
X3664131Y-18163151D01*
X3931991Y-17982916D02*
X4055801Y-17982916D01*
X3989134Y-18059107D01*
X4017706Y-18059107D01*
X4036753Y-18068630D01*
X4046277Y-18078154D01*
X4055801Y-18097202D01*
X4055801Y-18144821D01*
X4046277Y-18163869D01*
X4036753Y-18173392D01*
X4017706Y-18182916D01*
X3960563Y-18182916D01*
X3941515Y-18173392D01*
X3931991Y-18163869D01*
X4141515Y-18163869D02*
X4151039Y-18173392D01*
X4141515Y-18182916D01*
X4131991Y-18173392D01*
X4141515Y-18163869D01*
X4141515Y-18182916D01*
X4341515Y-18182916D02*
X4227230Y-18182916D01*
X4284372Y-18182916D02*
X4284372Y-17982916D01*
X4265325Y-18011488D01*
X4246277Y-18030535D01*
X4227230Y-18040059D01*
X4512944Y-17982916D02*
X4474849Y-17982916D01*
X4455801Y-17992440D01*
X4446277Y-18001964D01*
X4427230Y-18030535D01*
X4417706Y-18068630D01*
X4417706Y-18144821D01*
X4427230Y-18163869D01*
X4436753Y-18173392D01*
X4455801Y-18182916D01*
X4493896Y-18182916D01*
X4512944Y-18173392D01*
X4522468Y-18163869D01*
X4531991Y-18144821D01*
X4531991Y-18097202D01*
X4522468Y-18078154D01*
X4512944Y-18068630D01*
X4493896Y-18059107D01*
X4455801Y-18059107D01*
X4436753Y-18068630D01*
X4427230Y-18078154D01*
X4417706Y-18097202D01*
X4608182Y-18001964D02*
X4617706Y-17992440D01*
X4636753Y-17982916D01*
X4684372Y-17982916D01*
X4703420Y-17992440D01*
X4712944Y-18001964D01*
X4722468Y-18021011D01*
X4722468Y-18040059D01*
X4712944Y-18068630D01*
X4598658Y-18182916D01*
X4722468Y-18182916D01*
X4808182Y-18182916D02*
X4808182Y-18049583D01*
X4808182Y-18068630D02*
X4817706Y-18059107D01*
X4836753Y-18049583D01*
X4865325Y-18049583D01*
X4884372Y-18059107D01*
X4893896Y-18078154D01*
X4893896Y-18182916D01*
X4893896Y-18078154D02*
X4903420Y-18059107D01*
X4922468Y-18049583D01*
X4951039Y-18049583D01*
X4970087Y-18059107D01*
X4979610Y-18078154D01*
X4979610Y-18182916D01*
X5074849Y-18182916D02*
X5074849Y-18049583D01*
X5074849Y-18068630D02*
X5084372Y-18059107D01*
X5103420Y-18049583D01*
X5131991Y-18049583D01*
X5151039Y-18059107D01*
X5160563Y-18078154D01*
X5160563Y-18182916D01*
X5160563Y-18078154D02*
X5170087Y-18059107D01*
X5189134Y-18049583D01*
X5217706Y-18049583D01*
X5236753Y-18059107D01*
X5246277Y-18078154D01*
X5246277Y-18182916D01*
X5636753Y-17973392D02*
X5465325Y-18230535D01*
X5893896Y-17982916D02*
X5912944Y-17982916D01*
X5931991Y-17992440D01*
X5941515Y-18001964D01*
X5951039Y-18021011D01*
X5960563Y-18059107D01*
X5960563Y-18106726D01*
X5951039Y-18144821D01*
X5941515Y-18163869D01*
X5931991Y-18173392D01*
X5912944Y-18182916D01*
X5893896Y-18182916D01*
X5874848Y-18173392D01*
X5865325Y-18163869D01*
X5855801Y-18144821D01*
X5846277Y-18106726D01*
X5846277Y-18059107D01*
X5855801Y-18021011D01*
X5865325Y-18001964D01*
X5874848Y-17992440D01*
X5893896Y-17982916D01*
X6046277Y-18163869D02*
X6055801Y-18173392D01*
X6046277Y-18182916D01*
X6036753Y-18173392D01*
X6046277Y-18163869D01*
X6046277Y-18182916D01*
X6246277Y-18182916D02*
X6131991Y-18182916D01*
X6189134Y-18182916D02*
X6189134Y-17982916D01*
X6170087Y-18011488D01*
X6151039Y-18030535D01*
X6131991Y-18040059D01*
X6322468Y-18001964D02*
X6331991Y-17992440D01*
X6351039Y-17982916D01*
X6398658Y-17982916D01*
X6417706Y-17992440D01*
X6427229Y-18001964D01*
X6436753Y-18021011D01*
X6436753Y-18040059D01*
X6427229Y-18068630D01*
X6312944Y-18182916D01*
X6436753Y-18182916D01*
X6608182Y-18049583D02*
X6608182Y-18182916D01*
X6560563Y-17973392D02*
X6512944Y-18116250D01*
X6636753Y-18116250D01*
X6808182Y-17982916D02*
X6712944Y-17982916D01*
X6703420Y-18078154D01*
X6712944Y-18068630D01*
X6731991Y-18059107D01*
X6779610Y-18059107D01*
X6798658Y-18068630D01*
X6808182Y-18078154D01*
X6817706Y-18097202D01*
X6817706Y-18144821D01*
X6808182Y-18163869D01*
X6798658Y-18173392D01*
X6779610Y-18182916D01*
X6731991Y-18182916D01*
X6712944Y-18173392D01*
X6703420Y-18163869D01*
X6893896Y-17982916D02*
X6893896Y-18021011D01*
X6970087Y-17982916D02*
X6970087Y-18021011D01*
X7265325Y-18259107D02*
X7255801Y-18249583D01*
X7236753Y-18221011D01*
X7227229Y-18201964D01*
X7217706Y-18173392D01*
X7208182Y-18125773D01*
X7208182Y-18087678D01*
X7217706Y-18040059D01*
X7227229Y-18011488D01*
X7236753Y-17992440D01*
X7255801Y-17963869D01*
X7265325Y-17954345D01*
X7331991Y-18001964D02*
X7341515Y-17992440D01*
X7360563Y-17982916D01*
X7408182Y-17982916D01*
X7427229Y-17992440D01*
X7436753Y-18001964D01*
X7446277Y-18021011D01*
X7446277Y-18040059D01*
X7436753Y-18068630D01*
X7322468Y-18182916D01*
X7446277Y-18182916D01*
X7684372Y-18182916D02*
X7684372Y-17982916D01*
X7770087Y-18182916D02*
X7770087Y-18078154D01*
X7760563Y-18059107D01*
X7741515Y-18049583D01*
X7712944Y-18049583D01*
X7693896Y-18059107D01*
X7684372Y-18068630D01*
X7893896Y-18182916D02*
X7874848Y-18173392D01*
X7865325Y-18163869D01*
X7855801Y-18144821D01*
X7855801Y-18087678D01*
X7865325Y-18068630D01*
X7874848Y-18059107D01*
X7893896Y-18049583D01*
X7922468Y-18049583D01*
X7941515Y-18059107D01*
X7951039Y-18068630D01*
X7960563Y-18087678D01*
X7960563Y-18144821D01*
X7951039Y-18163869D01*
X7941515Y-18173392D01*
X7922468Y-18182916D01*
X7893896Y-18182916D01*
X8074848Y-18182916D02*
X8055801Y-18173392D01*
X8046277Y-18154345D01*
X8046277Y-17982916D01*
X8227229Y-18173392D02*
X8208182Y-18182916D01*
X8170087Y-18182916D01*
X8151039Y-18173392D01*
X8141515Y-18154345D01*
X8141515Y-18078154D01*
X8151039Y-18059107D01*
X8170087Y-18049583D01*
X8208182Y-18049583D01*
X8227229Y-18059107D01*
X8236753Y-18078154D01*
X8236753Y-18097202D01*
X8141515Y-18116250D01*
X8312944Y-18173392D02*
X8331991Y-18182916D01*
X8370087Y-18182916D01*
X8389134Y-18173392D01*
X8398658Y-18154345D01*
X8398658Y-18144821D01*
X8389134Y-18125773D01*
X8370087Y-18116250D01*
X8341515Y-18116250D01*
X8322468Y-18106726D01*
X8312944Y-18087678D01*
X8312944Y-18078154D01*
X8322468Y-18059107D01*
X8341515Y-18049583D01*
X8370087Y-18049583D01*
X8389134Y-18059107D01*
X8465325Y-18259107D02*
X8474849Y-18249583D01*
X8493896Y-18221011D01*
X8503420Y-18201964D01*
X8512944Y-18173392D01*
X8522468Y-18125773D01*
X8522468Y-18087678D01*
X8512944Y-18040059D01*
X8503420Y-18011488D01*
X8493896Y-17992440D01*
X8474849Y-17963869D01*
X8465325Y-17954345D01*
M02*
