M48
; DRILL file {KiCad (6.0.0)} date Wed Apr  6 23:59:06 2022
; FORMAT={-:-/ absolute / metric / decimal}
; #@! TF.CreationDate,2022-04-06T23:59:06+02:00
; #@! TF.GenerationSoftware,Kicad,Pcbnew,(6.0.0)
; #@! TF.FileFunction,Plated,1,2,PTH
FMAT,2
METRIC
; #@! TA.AperFunction,Plated,PTH,ViaDrill
T1C0.300
; #@! TA.AperFunction,Plated,PTH,ComponentDrill
T2C0.900
; #@! TA.AperFunction,Plated,PTH,ComponentDrill
T3C1.000
; #@! TA.AperFunction,Plated,PTH,ComponentDrill
T4C1.050
; #@! TA.AperFunction,Plated,PTH,ComponentDrill
T5C1.100
; #@! TA.AperFunction,Plated,PTH,ComponentDrill
T6C1.300
; #@! TA.AperFunction,Plated,PTH,ComponentDrill
T7C1.600
; #@! TA.AperFunction,Plated,PTH,ComponentDrill
T8C3.162
%
G90
G05
T1
X40.361Y-92.939
X40.767Y-70.18
X40.869Y-74.6
X41.427Y-104.216
X42.647Y-105.029
X43.567Y-89.681
X43.922Y-87.802
X44.577Y-60.477
X45.339Y-87.147
X45.441Y-84.607
X45.898Y-75.971
X45.949Y-71.247
X46.05Y-118.847
X46.406Y-125.603
X46.558Y-87.3
X46.711Y-84.506
X47.117Y-104.064
X47.777Y-87.351
X48.133Y-84.455
X48.895Y-87.351
X48.997Y-96.19
X49.454Y-84.455
X49.962Y-87.351
X49.962Y-118.44
X50.724Y-84.455
X51.079Y-87.351
X51.181Y-102.235
X51.994Y-84.455
X52.349Y-79.172
X52.349Y-87.351
X53.264Y-84.506
X53.569Y-87.351
X54.483Y-84.506
X54.737Y-87.351
X55.093Y-79.985
X55.601Y-84.557
X55.753Y-87.351
X55.753Y-105.689
X56.718Y-84.506
X56.82Y-87.3
X57.277Y-91.211
X57.734Y-119.355
X57.785Y-87.249
X57.836Y-84.557
X57.836Y-122.403
X57.887Y-123.723
X57.887Y-124.993
X57.937Y-107.975
X57.988Y-75.717
X58.039Y-134.595
X58.344Y-90.754
X58.903Y-91.364
X59.004Y-88.163
X59.207Y-89.789
X59.614Y-68.453
X59.665Y-72.669
X59.919Y-83.642
X60.325Y-82.067
X60.884Y-73.99
X61.646Y-80.543
X62.111Y-87.821
X62.814Y-74.041
X63.424Y-129.057
X63.932Y-75.819
X64.033Y-93.599
X64.135Y-79.375
X64.186Y-91.821
X64.237Y-104.673
X64.287Y-87.655
X64.795Y-76.429
X65.151Y-119.202
X65.151Y-121.082
X65.608Y-85.319
X65.608Y-86.487
X65.608Y-87.503
X66.116Y-72.415
X66.37Y-84.156
X66.675Y-85.369
X66.675Y-86.538
X66.726Y-87.503
X66.827Y-76.581
X67.031Y-54.839
X67.183Y-79.273
X67.285Y-81.051
X67.742Y-91.719
X67.793Y-75.971
X67.793Y-85.369
X67.793Y-87.503
X67.793Y-88.722
X67.843Y-86.538
X67.996Y-93.599
X68.047Y-83.896
X68.402Y-78.359
X68.859Y-80.035
X68.961Y-81.153
X69.012Y-88.621
X69.113Y-86.639
X69.164Y-85.776
X69.215Y-92.075
X69.266Y-84.912
X69.367Y-87.452
X69.418Y-91.11
X69.926Y-72.314
X70.079Y-112.547
X70.18Y-79.019
X70.726Y-82.792
X70.79Y-117.018
X70.993Y-77.191
X71.501Y-116.528
X71.653Y-79.477
X72.06Y-106.248
X72.212Y-87.757
X72.247Y-116.138
X72.263Y-80.849
X72.263Y-89.383
X72.873Y-106.248
X73.541Y-117.412
X73.99Y-102.743
X74.041Y-80.543
X74.143Y-81.661
X74.295Y-103.556
X74.295Y-116.865
X74.803Y-72.517
X75.006Y-100.711
X75.362Y-125.755
X75.616Y-93.142
X77.14Y-81.661
X80.137Y-86.589
X80.391Y-120.32
X81.915Y-78.308
X83.388Y-127.381
X86.436Y-127.33
X87.401Y-90.551
X87.666Y-78.987
X88.621Y-121.996
X88.671Y-124.638
X88.722Y-125.857
X88.773Y-132.918
X91.161Y-105.029
X91.364Y-118.796
X91.465Y-91.262
X91.821Y-104.267
X92.227Y-117.983
X93.091Y-104.826
X93.701Y-109.753
X94.005Y-90.348
X96.088Y-129.108
X96.291Y-90.653
X96.393Y-125.806
X97.511Y-124.79
X98.019Y-138.252
X104.927Y-125.705
X106.959Y-119.05
X108.351Y-106.433
X110.261Y-104.165
X110.312Y-106.756
X114.529Y-129.921
X115.443Y-152.883
X116.053Y-137.084
X116.154Y-149.123
X116.662Y-113.513
X117.221Y-80.035
X117.78Y-135.865
X117.932Y-122.149
X118.034Y-123.571
X119.863Y-122.199
X120.472Y-133.325
X121.488Y-124.231
X122.504Y-137.033
X122.707Y-132.004
X123.165Y-135.407
X124.333Y-82.118
X124.587Y-79.324
X125.451Y-126.111
X125.451Y-133.325
X125.603Y-142.265
X125.857Y-147.142
X127.381Y-128.092
X127.991Y-149.174
X128.092Y-144.145
X128.651Y-134.036
X129.362Y-125.908
X130.023Y-117.983
X131.851Y-74.752
X133.172Y-73.838
X133.172Y-79.781
X133.731Y-153.594
X134.461Y-117.156
X135.407Y-118.288
X136.373Y-134.849
X136.373Y-149.428
X137.084Y-127.94
X140.132Y-144.551
X140.233Y-121.133
X140.386Y-133.934
X141.656Y-56.464
X143.129Y-79.883
T2
X42.839Y-50.882
X45.379Y-50.882
T3
X61.417Y-96.337
X61.417Y-98.877
X74.549Y-70.637
X75.763Y-75.616
X77.089Y-70.637
X78.303Y-75.616
X79.629Y-70.637
X89.019Y-53.912
X91.559Y-53.912
X94.099Y-53.912
X96.639Y-53.912
X141.178Y-66.248
X141.178Y-68.788
X141.178Y-71.328
X141.178Y-73.868
X141.178Y-76.408
X143.718Y-66.248
X143.718Y-68.788
X143.718Y-71.328
X143.718Y-73.868
X143.718Y-76.408
T4
X47.061Y-108.027
X47.061Y-114.527
X47.484Y-60.334
X47.484Y-66.834
X51.561Y-108.027
X51.561Y-114.527
X51.984Y-60.334
X51.984Y-66.834
X53.561Y-96.527
X53.561Y-103.027
X56.984Y-49.834
X56.984Y-56.334
X56.984Y-60.334
X56.984Y-66.834
X56.984Y-70.834
X56.984Y-77.334
X58.061Y-96.527
X58.061Y-103.027
X59.561Y-108.027
X59.561Y-114.527
X61.484Y-49.834
X61.484Y-56.334
X61.484Y-60.334
X61.484Y-66.834
X61.484Y-70.834
X61.484Y-77.334
X64.061Y-108.027
X64.061Y-114.527
X66.061Y-96.527
X66.061Y-103.027
X66.484Y-60.334
X66.484Y-66.834
X70.561Y-96.527
X70.561Y-103.027
X70.984Y-60.334
X70.984Y-66.834
X72.061Y-108.027
X72.061Y-114.527
X76.561Y-108.027
X76.561Y-114.527
X84.561Y-108.027
X84.561Y-114.527
X89.061Y-108.027
X89.061Y-114.527
X91.061Y-96.527
X91.061Y-103.027
X95.561Y-96.527
X95.561Y-103.027
X97.061Y-108.027
X97.061Y-114.527
X101.561Y-108.027
X101.561Y-114.527
X103.561Y-96.527
X103.561Y-103.027
X108.061Y-96.527
X108.061Y-103.027
X109.56Y-108.027
X109.56Y-114.527
X114.06Y-108.027
X114.06Y-114.527
X116.061Y-96.527
X116.061Y-103.027
X120.561Y-96.527
X120.561Y-103.027
X122.06Y-108.027
X122.06Y-114.527
X126.485Y-80.758
X126.485Y-87.258
X126.56Y-108.027
X126.56Y-114.527
X130.985Y-80.758
X130.985Y-87.258
X134.56Y-108.027
X134.56Y-114.527
X139.06Y-108.027
X139.06Y-114.527
T5
X126.227Y-71.267
X128.727Y-71.267
X131.227Y-71.267
T6
X41.225Y-82.984
X41.225Y-89.584
T7
X38.559Y-132.334
X38.564Y-141.734
X38.564Y-151.111
X46.859Y-132.334
X46.864Y-141.734
X46.864Y-151.111
X49.959Y-132.334
X49.964Y-141.734
X49.964Y-151.111
X70.564Y-132.334
X70.564Y-141.734
X70.564Y-151.111
X78.864Y-132.334
X78.864Y-141.734
X78.864Y-151.111
X81.964Y-132.334
X81.964Y-141.734
X81.964Y-151.111
X102.064Y-132.334
X102.064Y-141.734
X102.064Y-151.111
X110.364Y-132.334
X110.364Y-141.734
X110.364Y-151.111
X113.464Y-132.334
X113.464Y-141.734
X113.464Y-151.111
X133.564Y-132.334
X133.564Y-141.734
X133.564Y-151.134
X141.864Y-132.334
X141.864Y-141.734
X141.864Y-151.134
X144.964Y-132.334
X144.964Y-141.734
X144.964Y-151.134
T8
X123.027Y-63.767
X134.427Y-63.767
T0
M30
