G04 #@! TF.GenerationSoftware,KiCad,Pcbnew,(6.0.0)*
G04 #@! TF.CreationDate,2022-04-06T23:58:59+02:00*
G04 #@! TF.ProjectId,GenerativeEngine,47656e65-7261-4746-9976-65456e67696e,rev?*
G04 #@! TF.SameCoordinates,Original*
G04 #@! TF.FileFunction,Legend,Bot*
G04 #@! TF.FilePolarity,Positive*
%FSLAX46Y46*%
G04 Gerber Fmt 4.6, Leading zero omitted, Abs format (unit mm)*
G04 Created by KiCad (PCBNEW (6.0.0)) date 2022-04-06 23:58:59*
%MOMM*%
%LPD*%
G01*
G04 APERTURE LIST*
%ADD10C,0.150000*%
%ADD11C,0.120000*%
%ADD12C,1.575000*%
%ADD13C,1.800000*%
%ADD14C,1.950000*%
%ADD15R,1.800000X1.800000*%
%ADD16C,1.650000*%
%ADD17C,4.800000*%
%ADD18O,1.600000X2.000000*%
%ADD19R,1.700000X1.700000*%
%ADD20O,1.700000X1.700000*%
G04 APERTURE END LIST*
D10*
X62850542Y-101350771D02*
X62707685Y-101398390D01*
X62660066Y-101446009D01*
X62612447Y-101541247D01*
X62612447Y-101684104D01*
X62660066Y-101779342D01*
X62707685Y-101826961D01*
X62802923Y-101874580D01*
X63183876Y-101874580D01*
X63183876Y-100874580D01*
X62850542Y-100874580D01*
X62755304Y-100922200D01*
X62707685Y-100969819D01*
X62660066Y-101065057D01*
X62660066Y-101160295D01*
X62707685Y-101255533D01*
X62755304Y-101303152D01*
X62850542Y-101350771D01*
X63183876Y-101350771D01*
X61993400Y-100874580D02*
X61802923Y-100874580D01*
X61707685Y-100922200D01*
X61612447Y-101017438D01*
X61564828Y-101207914D01*
X61564828Y-101541247D01*
X61612447Y-101731723D01*
X61707685Y-101826961D01*
X61802923Y-101874580D01*
X61993400Y-101874580D01*
X62088638Y-101826961D01*
X62183876Y-101731723D01*
X62231495Y-101541247D01*
X62231495Y-101207914D01*
X62183876Y-101017438D01*
X62088638Y-100922200D01*
X61993400Y-100874580D01*
X60945780Y-100874580D02*
X60755304Y-100874580D01*
X60660066Y-100922200D01*
X60564828Y-101017438D01*
X60517209Y-101207914D01*
X60517209Y-101541247D01*
X60564828Y-101731723D01*
X60660066Y-101826961D01*
X60755304Y-101874580D01*
X60945780Y-101874580D01*
X61041019Y-101826961D01*
X61136257Y-101731723D01*
X61183876Y-101541247D01*
X61183876Y-101207914D01*
X61136257Y-101017438D01*
X61041019Y-100922200D01*
X60945780Y-100874580D01*
X60231495Y-100874580D02*
X59660066Y-100874580D01*
X59945780Y-101874580D02*
X59945780Y-100874580D01*
X80393895Y-68295780D02*
X80393895Y-67295780D01*
X80155800Y-67295780D01*
X80012942Y-67343400D01*
X79917704Y-67438638D01*
X79870085Y-67533876D01*
X79822466Y-67724352D01*
X79822466Y-67867209D01*
X79870085Y-68057685D01*
X79917704Y-68152923D01*
X80012942Y-68248161D01*
X80155800Y-68295780D01*
X80393895Y-68295780D01*
X79393895Y-67771971D02*
X79060561Y-67771971D01*
X78917704Y-68295780D02*
X79393895Y-68295780D01*
X79393895Y-67295780D01*
X78917704Y-67295780D01*
X78155800Y-67771971D02*
X78012942Y-67819590D01*
X77965323Y-67867209D01*
X77917704Y-67962447D01*
X77917704Y-68105304D01*
X77965323Y-68200542D01*
X78012942Y-68248161D01*
X78108180Y-68295780D01*
X78489133Y-68295780D01*
X78489133Y-67295780D01*
X78155800Y-67295780D01*
X78060561Y-67343400D01*
X78012942Y-67391019D01*
X77965323Y-67486257D01*
X77965323Y-67581495D01*
X78012942Y-67676733D01*
X78060561Y-67724352D01*
X78155800Y-67771971D01*
X78489133Y-67771971D01*
X77489133Y-67295780D02*
X77489133Y-68105304D01*
X77441514Y-68200542D01*
X77393895Y-68248161D01*
X77298657Y-68295780D01*
X77108180Y-68295780D01*
X77012942Y-68248161D01*
X76965323Y-68200542D01*
X76917704Y-68105304D01*
X76917704Y-67295780D01*
X75917704Y-67343400D02*
X76012942Y-67295780D01*
X76155800Y-67295780D01*
X76298657Y-67343400D01*
X76393895Y-67438638D01*
X76441514Y-67533876D01*
X76489133Y-67724352D01*
X76489133Y-67867209D01*
X76441514Y-68057685D01*
X76393895Y-68152923D01*
X76298657Y-68248161D01*
X76155800Y-68295780D01*
X76060561Y-68295780D01*
X75917704Y-68248161D01*
X75870085Y-68200542D01*
X75870085Y-67867209D01*
X76060561Y-67867209D01*
X142489314Y-63236780D02*
X142489314Y-63951066D01*
X142536933Y-64093923D01*
X142632171Y-64189161D01*
X142775028Y-64236780D01*
X142870266Y-64236780D01*
X141489314Y-64236780D02*
X142060742Y-64236780D01*
X141775028Y-64236780D02*
X141775028Y-63236780D01*
X141870266Y-63379638D01*
X141965504Y-63474876D01*
X142060742Y-63522495D01*
X140870266Y-63236780D02*
X140775028Y-63236780D01*
X140679790Y-63284400D01*
X140632171Y-63332019D01*
X140584552Y-63427257D01*
X140536933Y-63617733D01*
X140536933Y-63855828D01*
X140584552Y-64046304D01*
X140632171Y-64141542D01*
X140679790Y-64189161D01*
X140775028Y-64236780D01*
X140870266Y-64236780D01*
X140965504Y-64189161D01*
X141013123Y-64141542D01*
X141060742Y-64046304D01*
X141108361Y-63855828D01*
X141108361Y-63617733D01*
X141060742Y-63427257D01*
X141013123Y-63332019D01*
X140965504Y-63284400D01*
X140870266Y-63236780D01*
X139584552Y-64236780D02*
X140155980Y-64236780D01*
X139870266Y-64236780D02*
X139870266Y-63236780D01*
X139965504Y-63379638D01*
X140060742Y-63474876D01*
X140155980Y-63522495D01*
X78642980Y-78658980D02*
X78976314Y-78182790D01*
X79214409Y-78658980D02*
X79214409Y-77658980D01*
X78833457Y-77658980D01*
X78738219Y-77706600D01*
X78690600Y-77754219D01*
X78642980Y-77849457D01*
X78642980Y-77992314D01*
X78690600Y-78087552D01*
X78738219Y-78135171D01*
X78833457Y-78182790D01*
X79214409Y-78182790D01*
X78214409Y-78135171D02*
X77881076Y-78135171D01*
X77738219Y-78658980D02*
X78214409Y-78658980D01*
X78214409Y-77658980D01*
X77738219Y-77658980D01*
X77357266Y-78611361D02*
X77214409Y-78658980D01*
X76976314Y-78658980D01*
X76881076Y-78611361D01*
X76833457Y-78563742D01*
X76785838Y-78468504D01*
X76785838Y-78373266D01*
X76833457Y-78278028D01*
X76881076Y-78230409D01*
X76976314Y-78182790D01*
X77166790Y-78135171D01*
X77262028Y-78087552D01*
X77309647Y-78039933D01*
X77357266Y-77944695D01*
X77357266Y-77849457D01*
X77309647Y-77754219D01*
X77262028Y-77706600D01*
X77166790Y-77658980D01*
X76928695Y-77658980D01*
X76785838Y-77706600D01*
X76357266Y-78135171D02*
X76023933Y-78135171D01*
X75881076Y-78658980D02*
X76357266Y-78658980D01*
X76357266Y-77658980D01*
X75881076Y-77658980D01*
X75595361Y-77658980D02*
X75023933Y-77658980D01*
X75309647Y-78658980D02*
X75309647Y-77658980D01*
D11*
X62747200Y-96337200D02*
X62747200Y-95007200D01*
X60087200Y-97607200D02*
X60087200Y-100207200D01*
X62747200Y-100207200D02*
X60087200Y-100207200D01*
X62747200Y-95007200D02*
X61417200Y-95007200D01*
X62747200Y-97607200D02*
X62747200Y-100207200D01*
X62747200Y-97607200D02*
X60087200Y-97607200D01*
X73219000Y-71967400D02*
X74549000Y-71967400D01*
X75819000Y-69307400D02*
X75819000Y-71967400D01*
X80959000Y-69307400D02*
X80959000Y-71967400D01*
X75819000Y-71967400D02*
X80959000Y-71967400D01*
X73219000Y-70637400D02*
X73219000Y-71967400D01*
X75819000Y-69307400D02*
X80959000Y-69307400D01*
X145048200Y-67518200D02*
X145048200Y-77738200D01*
X139848200Y-64918200D02*
X139848200Y-77738200D01*
X145048200Y-67518200D02*
X142448200Y-67518200D01*
X142448200Y-64918200D02*
X139848200Y-64918200D01*
X145048200Y-66248200D02*
X145048200Y-64918200D01*
X145048200Y-77738200D02*
X139848200Y-77738200D01*
X142448200Y-67518200D02*
X142448200Y-64918200D01*
X145048200Y-64918200D02*
X143718200Y-64918200D01*
X77033200Y-74285800D02*
X79633200Y-74285800D01*
X75763200Y-74285800D02*
X74433200Y-74285800D01*
X79633200Y-74285800D02*
X79633200Y-76945800D01*
X74433200Y-74285800D02*
X74433200Y-75615800D01*
X77033200Y-76945800D02*
X79633200Y-76945800D01*
X77033200Y-74285800D02*
X77033200Y-76945800D01*
%LPC*%
D12*
X109560400Y-108027400D03*
X109560400Y-114527400D03*
X114060400Y-108027400D03*
X114060400Y-114527400D03*
X66060900Y-96527400D03*
X66060900Y-103027400D03*
X70560900Y-96527400D03*
X70560900Y-103027400D03*
D13*
X144964200Y-141734400D03*
X141864200Y-141734400D03*
X133564200Y-141734400D03*
D12*
X59560900Y-108027400D03*
X59560900Y-114527400D03*
X64060900Y-108027400D03*
X64060900Y-114527400D03*
X56984200Y-49834400D03*
X56984200Y-56334400D03*
X61484200Y-49834400D03*
X61484200Y-56334400D03*
X66484200Y-60334400D03*
X66484200Y-66834400D03*
X70984200Y-60334400D03*
X70984200Y-66834400D03*
X72060900Y-108027400D03*
X72060900Y-114527400D03*
X76560900Y-108027400D03*
X76560900Y-114527400D03*
X47484200Y-60334400D03*
X47484200Y-66834400D03*
X51984200Y-60334400D03*
X51984200Y-66834400D03*
X84560900Y-108027400D03*
X84560900Y-114527400D03*
X89060900Y-108027400D03*
X89060900Y-114527400D03*
D13*
X49964200Y-151110800D03*
X46864200Y-151110800D03*
X38564200Y-151110800D03*
D14*
X41225400Y-82983800D03*
X41225400Y-89583800D03*
D12*
X91060900Y-96527400D03*
X91060900Y-103027400D03*
X95560900Y-96527400D03*
X95560900Y-103027400D03*
X134560400Y-108027400D03*
X134560400Y-114527400D03*
X139060400Y-108027400D03*
X139060400Y-114527400D03*
D13*
X81964200Y-132334400D03*
X78864200Y-132334400D03*
X70564200Y-132334400D03*
X49959200Y-132334400D03*
X46859200Y-132334400D03*
X38559200Y-132334400D03*
D15*
X42839200Y-50882400D03*
D13*
X45379200Y-50882400D03*
D12*
X122060400Y-108027400D03*
X122060400Y-114527400D03*
X126560400Y-108027400D03*
X126560400Y-114527400D03*
X116060900Y-96527400D03*
X116060900Y-103027400D03*
X120560900Y-96527400D03*
X120560900Y-103027400D03*
D13*
X113464200Y-132334400D03*
X110364200Y-132334400D03*
X102064200Y-132334400D03*
D12*
X53560900Y-96527400D03*
X53560900Y-103027400D03*
X58060900Y-96527400D03*
X58060900Y-103027400D03*
D13*
X113464200Y-141734400D03*
X110364200Y-141734400D03*
X102064200Y-141734400D03*
D12*
X56984200Y-70834400D03*
X56984200Y-77334400D03*
X61484200Y-70834400D03*
X61484200Y-77334400D03*
D13*
X113464200Y-151110800D03*
X110364200Y-151110800D03*
X102064200Y-151110800D03*
X144964200Y-151134400D03*
X141864200Y-151134400D03*
X133564200Y-151134400D03*
D16*
X126227000Y-71267500D03*
X131227000Y-71267500D03*
X128727000Y-71267500D03*
D17*
X134427000Y-63767500D03*
X123027000Y-63767500D03*
D18*
X89018600Y-53912200D03*
X91558600Y-53912200D03*
X94098600Y-53912200D03*
X96638600Y-53912200D03*
D13*
X144964200Y-132334400D03*
X141864200Y-132334400D03*
X133564200Y-132334400D03*
D12*
X97060900Y-108027400D03*
X97060900Y-114527400D03*
X101560900Y-108027400D03*
X101560900Y-114527400D03*
D13*
X81964200Y-151110800D03*
X78864200Y-151110800D03*
X70564200Y-151110800D03*
D12*
X126485328Y-80758410D03*
X126485328Y-87258410D03*
X130985328Y-80758410D03*
X130985328Y-87258410D03*
X47060900Y-108027400D03*
X47060900Y-114527400D03*
X51560900Y-108027400D03*
X51560900Y-114527400D03*
D13*
X81964200Y-141734400D03*
X78864200Y-141734400D03*
X70564200Y-141734400D03*
D12*
X56984200Y-60334400D03*
X56984200Y-66834400D03*
X61484200Y-60334400D03*
X61484200Y-66834400D03*
X103560900Y-96527400D03*
X103560900Y-103027400D03*
X108060900Y-96527400D03*
X108060900Y-103027400D03*
D13*
X49964200Y-141734400D03*
X46864200Y-141734400D03*
X38564200Y-141734400D03*
D19*
X61417200Y-96337200D03*
D20*
X61417200Y-98877200D03*
D19*
X74549000Y-70637400D03*
D20*
X77089000Y-70637400D03*
X79629000Y-70637400D03*
D19*
X143718200Y-66248200D03*
D20*
X141178200Y-66248200D03*
X143718200Y-68788200D03*
X141178200Y-68788200D03*
X143718200Y-71328200D03*
X141178200Y-71328200D03*
X143718200Y-73868200D03*
X141178200Y-73868200D03*
X143718200Y-76408200D03*
X141178200Y-76408200D03*
D19*
X75763200Y-75615800D03*
D20*
X78303200Y-75615800D03*
M02*
