G04 #@! TF.GenerationSoftware,KiCad,Pcbnew,(6.0.0)*
G04 #@! TF.CreationDate,2022-04-07T00:01:17+02:00*
G04 #@! TF.ProjectId,GenerativeEngineFaceplate,47656e65-7261-4746-9976-65456e67696e,rev?*
G04 #@! TF.SameCoordinates,Original*
G04 #@! TF.FileFunction,Legend,Bot*
G04 #@! TF.FilePolarity,Positive*
%FSLAX46Y46*%
G04 Gerber Fmt 4.6, Leading zero omitted, Abs format (unit mm)*
G04 Created by KiCad (PCBNEW (6.0.0)) date 2022-04-07 00:01:17*
%MOMM*%
%LPD*%
G01*
G04 APERTURE LIST*
%ADD10C,0.150000*%
%ADD11O,6.200000X3.300000*%
G04 APERTURE END LIST*
D10*
X137740447Y-45197780D02*
X137740447Y-45912066D01*
X137788066Y-46054923D01*
X137883304Y-46150161D01*
X138026161Y-46197780D01*
X138121400Y-46197780D01*
X136788066Y-46197780D02*
X137264257Y-46197780D01*
X137264257Y-45197780D01*
X135883304Y-46102542D02*
X135930923Y-46150161D01*
X136073780Y-46197780D01*
X136169019Y-46197780D01*
X136311876Y-46150161D01*
X136407114Y-46054923D01*
X136454733Y-45959685D01*
X136502352Y-45769209D01*
X136502352Y-45626352D01*
X136454733Y-45435876D01*
X136407114Y-45340638D01*
X136311876Y-45245400D01*
X136169019Y-45197780D01*
X136073780Y-45197780D01*
X135930923Y-45245400D01*
X135883304Y-45293019D01*
X135169019Y-45197780D02*
X135169019Y-45912066D01*
X135216638Y-46054923D01*
X135311876Y-46150161D01*
X135454733Y-46197780D01*
X135549971Y-46197780D01*
X134216638Y-46197780D02*
X134692828Y-46197780D01*
X134692828Y-45197780D01*
X133311876Y-46102542D02*
X133359495Y-46150161D01*
X133502352Y-46197780D01*
X133597590Y-46197780D01*
X133740447Y-46150161D01*
X133835685Y-46054923D01*
X133883304Y-45959685D01*
X133930923Y-45769209D01*
X133930923Y-45626352D01*
X133883304Y-45435876D01*
X133835685Y-45340638D01*
X133740447Y-45245400D01*
X133597590Y-45197780D01*
X133502352Y-45197780D01*
X133359495Y-45245400D01*
X133311876Y-45293019D01*
X132597590Y-45197780D02*
X132597590Y-45912066D01*
X132645209Y-46054923D01*
X132740447Y-46150161D01*
X132883304Y-46197780D01*
X132978542Y-46197780D01*
X131645209Y-46197780D02*
X132121400Y-46197780D01*
X132121400Y-45197780D01*
X130740447Y-46102542D02*
X130788066Y-46150161D01*
X130930923Y-46197780D01*
X131026161Y-46197780D01*
X131169019Y-46150161D01*
X131264257Y-46054923D01*
X131311876Y-45959685D01*
X131359495Y-45769209D01*
X131359495Y-45626352D01*
X131311876Y-45435876D01*
X131264257Y-45340638D01*
X131169019Y-45245400D01*
X131026161Y-45197780D01*
X130930923Y-45197780D01*
X130788066Y-45245400D01*
X130740447Y-45293019D01*
X130026161Y-45197780D02*
X130026161Y-45912066D01*
X130073780Y-46054923D01*
X130169019Y-46150161D01*
X130311876Y-46197780D01*
X130407114Y-46197780D01*
X129073780Y-46197780D02*
X129549971Y-46197780D01*
X129549971Y-45197780D01*
X128169019Y-46102542D02*
X128216638Y-46150161D01*
X128359495Y-46197780D01*
X128454733Y-46197780D01*
X128597590Y-46150161D01*
X128692828Y-46054923D01*
X128740447Y-45959685D01*
X128788066Y-45769209D01*
X128788066Y-45626352D01*
X128740447Y-45435876D01*
X128692828Y-45340638D01*
X128597590Y-45245400D01*
X128454733Y-45197780D01*
X128359495Y-45197780D01*
X128216638Y-45245400D01*
X128169019Y-45293019D01*
%LPC*%
D11*
X139192000Y-162941000D03*
X45516800Y-162890200D03*
X45999400Y-40309800D03*
X137795000Y-40360600D03*
M02*
